<svg viewBox="0 0 1040 961" xmlns="http://www.w3.org/2000/svg"><g fill-rule="evenodd" stroke-width=".5"><path d="M0 480.5V0h1040v961H0V480.5zm651.8-196l.2 1.5h.5l.3.2.2.3.2.3.3.2 2.5 4.5q2.5 4.5 77.8-26.7 75.2-31.3 78-30.6 2.7.8 85.7 189.8T982 616.5t.5 7.5-14.3 9.8Q955 639.5 954 640l-1 .5-1.5.3-1.5.2-.2.5q-.3.5-.6.5h-.2l-1 .2q-1 .3-51 21.3l-50 21-1.5.5-1.5.5-.2.3-.3.2-.3.2-.2.3.2.3.3.2.3.2.2.3.2.3.3.2.3.2.2.3 3.8 4.7q3.7 4.8 4 5l.2.3.2.3.3.2.5 1 .5 1 .3 1.5.2 1.5h.2q.3 0 .3 4.5t-1 6.5-5.3 7.8Q845 728.5 836 733t-110.5 47-112 45-19 2.8l-8.5.2-2.5-.2-2.5-.3-3.5-.5q-3.5-.5-11.5-4.5l-8-4-.2-.3-.3-.2-.3.2-.2.3-.2.3-.3.2-4.5 10.5q-4.5 10.5-5 11.5l-.5 1-.3.5-.2.5.2 1 .3 1 .3-.2.2-.3.2-.3.3-.2.3-.2.2-.3.2-.3.3-.2.3-.2.2-.3 2 2q2 2 40.5 5t52 7.5 18.3 9.2q4.7 4.8 6.2 7.8t1 10.5-5.8 13.3Q658 903.5 648 908t-37 10-48.5 8.5-86 3-76-.5l-11.5-.5v-.5h-7l-8-.2q-8-.3-14-1.3t-13-3.7q-7-2.8-9.8-6.3-2.7-3.5-4-13.5-1.2-10-8.7-16t-10.3-9.5q-2.7-3.5-10.4-13.7-7.8-10.3-13.6-23-5.7-12.8-8.7-24.3T278 789t.2-20.5l.8-4.5.2-3.5q.3-3.5 4.3-16t12-26.5 22.3-28.2q14.2-14.3 24.4-21.6 10.3-7.2 19-11.2l8.8-4 .2-.5q.3-.5.6-.5h.2l.5-.2.5-.3 1.5-.5q1.5-.5 5-1.2 3.5-.8 4.7-36.3l1.3-35.5h.5l-.2-10.5q-.3-10.5-.3-34t.7-54l.8-30.5-.2-1.5q-.3-1.5-4-11-3.8-9.5-4.8-9.7-1-.3-18.2-40-17.3-39.8-25.8-60.3t-12.8-30L316 287h-2l-.2-1.5-.3-1.5-.5-1-.5-1-.3-.2-.2-.3-.2-.3-.3-.2-.5-1q-.5-1-5-7.5T289.5 254l-12-12-.3-.2-.2-.3-1.5-.3q-1.5-.2-2.3 2.8-.7 3-3.4 3.2l-2.8.3-1.5-.3-1.5-.2.2-2q.3-2 1-5.5l.8-3.5-2-.2q-2-.3-79.8-20-77.7-19.8-73-40.3L116 155l56.5 13.8Q229 182.5 231 183l2 .5 3 .3 3 .2.2-1 .3-1 .3-2.5.2-2.5-2-.2-2-.3-2-.5-76-19-74-18.5-1.5-.5-1.5-.5-.2-.3-.3-.2v-4l.3-.2.2-.3v-.5l.2-1 .3-1 .5-2q.5-2 3.2-12l2.8-10 1.5-4.8q1.5-4.7 82 14.6Q252 135 253.2 131q1.3-4 1.6-4.2l.2-.3.2-.3.3-.2.3.2.2.3 1 .5 1 .5h2l.2-.3.3-.2.3.2.2.3.2.3.3.2.3.2.2.3.2.3.3.2v1l-.7 5.2q-.8 5.3 12 15 12.7 9.8 13 10.8l.2 1 1 .2 1 .3.2.3.3.2.3.2.2.3.2.3.3.2.3.2.2.3 1 .3 1 .2v2h-3l10.2 11.5q10.3 11.5 12.8 15t2.8 3.5h.2l.2-1 .3-1 .3.2.2.3.2.3.3.2.5 1 .5 1 .3.2.2.3.2.3.3.2.5 1 .5 1 .3.2.2.3.2.3.3.2.3.2.2.3.2.3.3.2.3.2.2.3.2.3.3.2v-3l-.5-1-.5-1-.5-1-.5-1-.5-1-.5-1-.5-1q-.5-1-1.8-5l-1.2-4-.5-.2q-.5-.3-.5-.6v-.2l-3.8-8.5q-3.7-8.5-3.2-11t47.2-22.3q46.8-19.7 48.3-20.2l1.5-.5.2-.3.3-.2.3-.2.2-.3 1-.3 1-.2 12.5-5.2q12.5-5.3 13.5-5.6l1-.2v-.5l1.5-.5 1.5-.5L493 85q54-22.5 58.2-22.2 4.3.2 52.3 110.2t48.3 111.5z" fill="transparent" stroke="#fff"/><path d="M423.2 589.5l.3-52.5.7.2q.8.3.8 0v-.2l23.8 51.5q23.7 51.5 24 53l.2 1.5v.5l-.2.3-.3.2v3l.5 1 .5 1 .3 1 .2 1-1-.2-1-.3-1.5-.5-1.5-.5-2-.5q-2-.5-7.5-2t-21-3.2L423 642l.2-52.5zm45.3 47q0-1.5 1 1.5t.7 2.8l-.4-.6q-.3-.2-.8-1.2t-.5-2.5z" fill="#fefefe" stroke="#fefefe"/><path d="M435 109.2l1-.2h2.5q2.5 0 9.7 16.5 7.3 16.5 7.3 18v1.5l-.3.2-.2.3-1 .5q-1 .5-6 2.5t-15.5 5.7L422 158l-.2-1q-.3-1-6.3-14.5t-6.7-17.3l-.8-3.7.2-.3.3-.2.3-.5.2-.5 12.5-5.2q12.5-5.3 13.5-5.6z" fill="#857f67" stroke="#857f67"/><path d="M552 339.2l1-.2v1q0 1-1.5 1.8l-1.5.7-.2.3-.3.2-.3.2-.2.3.2.3.3.2 3 6q3 6 7.3 9.5 4.2 3.5 5 1 .7-2.5 5.4 1.7 4.8 4.3 5.8 4.6 1 .2 1.5-1 .5-1.3 2.3-1 1.7.2 5.2 3.7t3.8 3.7l.2.3 1 .3q1 .2.5-1-.5-1.3 2-1.3h2.5l.2.3.3.2 3.3 3.2q3.2 3.3 4.2 3.6l1 .2v2l1-.2 1-.3-.2-.3q-.3-.2-.8-2.2l-.5-2 .3.2.2.3.2.3.3.2.3.2.2.3.2.3.3.2.5-1 .5-1 .3.2.2.3.2.3.3.2 1.7 3q1.8 3 5.3 4.5t4 .3q.5-1.3 1.5-1.8t2.5 1.8q1.5 2.2 2.5 2.2t1 1 1 1 1 1.5v1.5h2v2l1 .2 1 .3.2.3.3.2v-1q0-1-.3-3l-.2-2 1.5.2 1.5.3.2.3.3.2.7 1.8q.8 1.7 3.3 2.4 2.5.8 4.5 4 2 3.3 3.8 3 1.7-.2 2-1.2.2-1 1.7-.2 1.5.7 1.7 1l.3.2.5 1 .5 1 .3-.2.2-.3.2-.3.3-.2.3.2.2.3 1 .3 1 .2-.2-3q-.3-3 .4-6.2.8-3.3 2.8-4.8l2-1.5 2-.5q2-.5 3.5.5t1.7.7q.3-.2.8 1.8l.5 2 .5-1 .5-1 .3.2.2.3.2.3.3.2.7-3.2q.8-3.3 1.3-2 .5 1.2 1.7.7 1.3-.5 1.6-1.5.2-1 1.4-1.5 1.3-.5 1.6-1.7.2-1.3 3.2-2.3t3.2-.7q.3.2.8-.8l.5-1 .3.2.2.3 1.2.3q1.3.2 0 1.4-1.2 1.3.8 1.8t3 0l1-.5 2.5-.3 2.5-.2-.2 1.5-.3 1.5-.3-.2-.2-.3-.2-.3-.3-.2-.3-.2-.2-.3-.2-.3-.3-.2-.3.2-.2.3-.2.3-.3.2-.3.2q-.2.3-2 2l-1.7 1.8-.3.2-.2.3-1 .5-1 .5 2.5.3 2.5.2-.2 1.5-.3 1.5v3l.3-.2.2-.3 1-.3 1-.2.2 2 .3 2 .3-.2.2-.3.2-.3q.3-.2.8-2.7l.5-2.5.3-.2.2-.3.2-.3.3-.2.5 1 .5 1 1.7 3.5q1.8 3.5 2.8 3.5t1 1.5 3.5 4.3q3.5 2.7 5.3 5 1.7 2.2 2 2.4l.2.3.2.3.3.2.3.2.2.3.2.3.3.2.3.2.2.3.2.3.3.2.5-2q.5-2 1-3.5l.5-1.5.3.2.2.3.2.3.3.2.3.2.2.3.2.3.3.2.3 1q.2 1 3.7 2.8 3.5 1.7 5.5.7t3 .7q1 1.8 2.8 2.3 1.7.5 2 1.5.2 1 2.2 1.5t2-.5 1.8-1q1.7 0 6.2 5.5t4.5 6-.3.7l-.2.3h2l1-2.3q1-2.2 2.2-1.7 1.3.5 2 1 .8.5.3 1.7-.5 1.3 4.3 2 4.7.8 13.7 21.8t12.7 22.8q3.8 1.7 4.6 3 .7 1.2 1 1l.2-.3 1-.3 1-.2-.2 1-.3 1-.3.2-.2.3 1.5.3 1.5.2v.5l-1.5.5-1.5.5-1 .5q-1 .5-119 48.2L567 580l-2.5-.2-2.5-.3.2-.3.3-.2.3-.2.2-.3-.2-.3-.3-.2-.3-.2-.2-.3-.2-.3-.3-.2-.3-2q-.2-2-1.2-2t.2-2.5q1.3-2.5 1.8-11t-1.5-12.5-4.7-6.5q-2.8-2.5-3-3.5-.3-1-4.6-3.2l-4.2-2.3h-6l-.2.3-.3.2-.3-.2-.2-.3-1-.3-1-.2v2h3l4.2 11q4.3 11 6.3 16t2.5 6l.5 1 .5 1.5.5 1.5v2l-.3.2-.2.3-.2.3-.3.2-.3.2-.2.3-.2.3-.3.2-.3.2-.2.3-.2.3-.3.2-.3.2-.2.3h-2l-.2-.3-.3-.2h-.5l-.2-.5-.3-.5h-.5l-.2-.5-.3-.5-.5-1-.5-1-.5-1q-.5-1-8.2-18.8l-7.8-17.7h-2l-1.5.5-1.5.5-1.5.5q-1.5.5-3.5 1.5l-2 1-1 .5-1 .5-1.5.5-1.5.5-.2.3-.3.2-.3.2-.2.3-.2.3-.3.2v2l.3.2.2.3 1 .3 1 .2-.2 1q-.3 1-.6 2.5l-.2 1.5h-3l-.2 1.5-.3 1.5-.3-.2-.2-.3-.2-.3-.3-.2-.5-1-2.5-5-2-4-.3-.2-.2-.3-.2-.3-.3-.2-.3-.2-.2-.3-.2-.3-.3-.2-.5 2.5q-.5 2.5-.8 3.5l-.2 1h-2l-.2-1-.3-1-.3-.2q-.2-.3-2.2-1.3t-4-4-2.5-2.3q-.5.8-2.5 1-2 .3-4.2-3-2.3-3.2-4.6-4.2-2.2-1-3-3l-.7-2-.3-.2-.2-.3-.2-.3-.3-.2v2l.3.2.2.3-.2.3-.3.2-.3.2-.2.3-.2.3-.3.2-.5-1.5-.5-1.5-.5 1-.5 1-.3.2-.2.3.2.3.3.2-.3 2.8q-.2 2.7-.7 2.7t-2 0H462l.2.3.3.2v3l-.3 1.5-.2 1.5h-.5l-.5-1.5-.5-1.5-.5-1-.5-1-.5-1.5q-.5-1.5-1.8-4.7-1.2-3.3-2.2-7-1-3.8-2-3.8t-1.2-1q-.3-1-20.3-48.5t-23.3-58L405 400h2l.2 1.5.3 1.5.5-1 .5-1 4.7-3.2q4.8-3.3 68.3-29.3T548 341t4-1.8zm132.2 42.6q-.2-.3 0-.6.3-.2.3.3t-.3.3zM639.5 542v1l-.3.2-.2.3-1.5.5q-1.5.5-3.5 1.5l-2 1-1.5.5-1.5.5-1 .5-1 .5-1.5.5-1.5.5-2 .3-2 .2.2-1.5q.3-1.5.8-3.5t-7.5-20-9.7-18.8l-1.8-.7-.2-.3-.3-.2v-2l.3-.2.2-.3 1-.5 1-.5 1-.5 1-.5 8.5-3q8.5-3 8.7 1.7.3 4.8 8.3 23.3t8 19.5zm-44 17.5v1.5l-.3.2-.2.3-1 .5-1 .5-1.5.5-1.5.5-1 .5-1 .5-1.5.5-1.5.5-1.5.5-1.5.5-1 .5-1 .5h-3l-.2-.3-.3-.2v-1q0-1 .5-3.5t-7-20-10.2-18l-2.8-.5v-4l1-.2 1-.3 1-.5 1-.5 1.5-.5 1.5-.5 6-2q6-2 15.8 20.3 9.7 22.2 9.7 23.7z" fill="#ada187" stroke="#ada187"/><path d="M954 640l-1 .5-1 .5-1 .5-1 .3-1 .2.2-1 .3-1 .3-2.5.2-2.5-1-.2q-1-.3 0-.8l1-.5-.2-.3q-.3-.2-2-2-1.8-1.7-3.3-1.2t-2-.2q-.5-.8-6-3.6-5.5-2.7-7.5-2.7t-5.5-3.7L920 616l-.2-.5q-.3-.5-.6-.5h-.2l-.2-.5q-.3-.5-15.3-35.5t-16.7-35.2q-1.8-.3-35.8 14L817 572l-2.5-.2q-2.5-.3-4-1-1.5-.8-2.5-3-1-2.3-4-3.8t-3.2.2q-.3 1.8-3 .3-2.8-1.5-2.8-2.5t-3.5-2.8q-3.5-1.7-4-1-.5.8-2 .6-1.5-.3-4.5-3.6-3-3.2-5-3.4-2-.3-2.8.4-.7.8-6.2-4.2t-7.2-5.2q-1.8-.3-2.3.4-.5.8-4-1-3.5-1.7-4-3-.5-1.2-3.5-1-3 .3-4.8-.4-1.7-.8-2.7-.8t-3.7-6q-2.8-6-3.8-5.8l-1 .3-.2.3-.3.2-.3-.2-.2-.3-.2-.3-.3-.2-.3-.2-.2-.3.2-.3.3-.2.3-.2.2-.3 1-.5q1-.5.5-1l-.5-.5.2-.3.3-.2.3-.5.2-.5 65-26.8q65-26.7 66.5-27.2l1.5-.5 1-.5 1-.5 1-.3 1-.2-.2-1.5-.3-1.5-.3-1-.2-1-1.5.2-1.5.3-1 .5-1 .5-1.5.5q-1.5.5-27 10.8L808 482l-1.5-.2-1.5-.3.2-.3.3-.2.3-1 .2-1-1 .2-1 .3-.2.3q-.3.2-1-1-.8-1.3-4.6-3-3.7-1.8-12.7-22.8t-13.7-21.8q-4.8-.7-4.3-2 .5-1.2-.3-1.7-.7-.5-2-1-1.2-.5-2.2 1.7l-1 2.3h-2l.2-.3q.3-.2.3-.7t-4.5-6-6.2-5.5q-1.8 0-1.8 1t-2 .5-2.2-1.5q-.3-1-2-1.5-1.8-.5-2.8-2.3-1-1.7-3-.7t-5.5-.7q-3.5-1.8-3.7-2.8l-.3-1-.3-.2-.2-.3-.2-.3-.3-.2-.3-.2-.2-.3-.2-.3-.3-.2-.5 1.5q-.5 1.5-1 3.5l-.5 2-.3-.2-.2-.3-.2-.3-.3-.2-.3-.2-.2-.3-.2-.3-.3-.2-.3-.2-.2-.3-.2-.3q-.3-.2-2-2.4-1.8-2.3-5.3-5-3.5-2.8-3.5-4.3t-1-1.5-2.8-3.5l-1.7-3.5-.5-1-.5-1-.3.2-.2.3-.2.3-.3.2-.5 2.5q-.5 2.5-.8 2.7l-.2.3-.2.3-.3.2-.3-2-.2-2-1 .2-1 .3-.2.3-.3.2v-3l.3-1.5.2-1.5-2.5-.2-2.5-.3 1-.5 1-.5.2-.3.3-.2 1.7-1.8q1.8-1.7 2-2l.3-.2.3-.2.2-.3.2-.3.3-.2.3.2.2.3.2.3.3.2.3.2.2.3.2.3.3.2.3-1.5.2-1.5-2.5.2-2.5.3-1 .5q-1 .5-3 0t-.8-1.8q1.3-1.2 0-1.4l-1.2-.3-.2-.3-.3-.2-.5 1q-.5 1-2.8 1.2-2.2.3-2.2 2 0 1.8-2.5 2.3t-2.7 1.5q-.3 1-1.6 1.5-1.2.5-1.7-.7-.5-1.3-1.3 2l-.7 3.2-.3-.2-.2-.3-.2-.3-.3-.2-.5 1-.5 1-.5-2q-.5-2-.8-1.8-.2.3-1.7-.7t-3.5-.5l-2 .5-2 1.5q-2 1.5-2.8 4.8-.7 3.2-.4 6.2l.2 3-1-.2-1-.3-.2-.3-.3-.2-.3.2-.2.3-.2.3-.3.2-.3-1-.2-1-1.5-.2q-1.5-.3-1.7-.6-.3-.2-1 1.8-.8 2-1.8 2t-3.5-4.5-5-5.3q-2.5-.7-3.3-2.4l-.7-1.8-.3-.2-.2-.3-1.5-.3-1.5-.2.2 2q.3 2 .3 3v1l-.3-.2-.2-.3-1-.3-1-.2v-2h-2v-1.5q0-1.5-1-1.5t-1-1-1-1-2.5-2.2q-1.5-2.3-2.5-1.8t-1.5 1.8q-.5 1.2-4-.3t-5.3-4.5l-1.7-3-.3-.2-.2-.3-.2-.3-.3-.2-.5 1-.5 1-.3-.2-.2-.3-.2-.3-.3-.2-.3-.2-.2-.3-.2-.3-.3-.2.5 2q.5 2 .8 2.2l.2.3-1 .3-1 .2v-2l-1-.2q-1-.3-4.2-3.6l-3.3-3.2-.3-.2-.2-.3h-2.5q-2.5 0-1.5 2.3l1 2.2h-2l-.2-1-.3-1-.3-.2-.2-.3-.2-.3q-.3-.2-3.8-3.7t-5.2-3.7q-1.8-.3-2.3 1-.5 1.2-1.5 1-1-.3-5.8-4.6-4.7-4.2-5.4-1.7-.8 2.5-5-1-4.3-3.5-7.3-9.5l-3-6-.3-.2-.2-.3.2-.3.3-.2.3-.2.2-.3.8-.7q.7-.8 1-1.3l.2-.5h.2q.3 0 .6-.5l.2-.5 17.5-7.8q17.5-7.7 18.5-8l1-.2h.5l.3-.2.2-.3 1-.5 1-.5.2-.3.3-.2.3-.2.2-.3 12-5q12-5 13-5.5t9-3.5 11.5-4.3q3.5-1.2 4-2.4.5-1.3 3.5-1.6 3-.2 3.8-3.2.7-3 .7-5v-2l-.3-.2-.2-.3.2-.3.3-.2.3-.5.2-.5h.5l.3.2.2.3.2.3.3.2 2.5 4.5q2.5 4.5 77.8-26.7 75.2-31.3 78-30.6 2.7.8 85.7 189.8T982 616.5t.5 7.5-14.3 9.8Q955 639.5 954 640z" fill="#bdb29a" stroke="#bdb29a"/><path d="M730 520.2l1-.2-.2.5-.3.5-.3.2-.2.3 3.8 7.7q3.7 7.8 4.7 7.8t2.7 1q1.8 1 1.8-.5t1-1.5 1 1 2 1 2.5 1.2q.5 1.3 4 3 3.5 1.8 4 1 .5-.7 2.3-.4 1.7.2 7.2 5.2t6.2 4.2q.8-.7 2.8-.4 2 .2 5 3.4 3 3.3 4.5 3.6 1.5.2 2-.6.5-.7 4 1 3.5 1.8 3.5 2.8t2.8 2.5q2.7 1.5 3-.3.2-1.7 3.2-.2t4 3.8q1 2.2 3.5 2.2t2.5 1 1.5 1h1.5v.5l-2.8 1.3q-2.7 1.2-.7 7.2t15 36 13.3 31l.2 1 38.5-15.5q38.5-15.5 38.5-17V615h2l1 2.8q1 2.7 3 4.2t4 1.5 7.5 2.7q5.5 2.8 6 3.6.5.7 2 .2t3.3 1.2q1.7 1.8 2 2l.2.3-1 .5q-1 .5 0 .8l1 .2v3h2v2l-1 .2q-1 .3-1 .6v.2l-.5.2q-.5.3-.5.6v.2l-1 .2q-1 .3-51 21.3l-50 21-1.5.5-1.5.5-.2.3-.3.2-.3.2-.2.3.2.3.3.2.3.2.2.3.2.3.3.2.3.2.2.3 3.8 4.7q3.7 4.8 4 5l.2.3.2.3.3.2.5 1 .5 1 .3 1.5.2 1.5-.2 1-.3 1-.3-.2-.2-.3-.2-.3-.3-.2-.3-.2-.2-.3-1-.5-1-.5-1-.5-1-.5h-4l-1.5.3-1.5.2-.2-.5-.3-.5-.3-.2-.2-.3.2-.3.3-.2.3-.2q.2-.3 1.4-1.6 1.3-1.2.3-5.2l-1-4-.3-.2-.2-.3-.2-.3-.3-.2-.3-.2-.2-.3h-3l-2 .5q-2 .5-82.5 34.5t-81 35.3q-.5 1.2-33 16.2L607 790l-5.5.2q-5.5.3-9.5 1.3t-8.5 1.3q-4.5.2-55-114.3T476 563.8l-2-.3-.2-.3-.3-.2-.3-.2-.2-.3-.2-.3-.3-.2-.3-.2-.2-.3-1-.3-1-.2-.2-1q-.3-1-4-10.5L462 540l.2-1.5.3-1.5v-3l-.3-.2-.2-.3h3.5q.5 0 .7-2.7l.3-2.8-.3-.2-.2-.3.2-.3.3-.2.5-1 .5-1 .5 1.5.5 1.5.3-.2.2-.3.2-.3.3-.2.3-.2.2-.3-.2-.3-.3-.2v-2l.3.2.2.3.2.3.3.2.7 2q.8 2 3 3 2.3 1 4.6 4.2 2.2 3.3 3.2 3.6 1 .2 1-1.3t2.2-.5q2.3 1 3.6 3.2 1.2 2.3 3.2 3.3t2.2 1.3l.3.2.3 1 .2 1h2l-.2-1-.6-2q-.2-1 .8-1t1.2-1.5l.3-1.5.3.2.2.3.2.3.3.2.3.2.2.3.2.3.3.2 2 4 2.5 5 .5 1 .3.2.2.3.2.3.3.2.3-1.5.2-1.5h3l.2-1.5q.3-1.5.6-2.5l.2-1h2l.2 1 .3 1 7.5 17q7.5 17 7 19.5t-.5 3.5v1l.3.2.2.3h4l1-.5 1-.5 1-.5 1-.5 1.5-.5 1.5-.5 1-.5 1-.5 1-.5 1-.5 1.5-.5q1.5-.5 1-4.2l-.5-3.8h1q1 0 1 1t1 .8l1-.3.2-.3.3-.2.3-.2.2-.3.2-.3.3-.2.3-.2.2-.3.2-.3.3-.2.3-.2.2-.3.2-.3.3-.2v-2l-.5-1.5-.5-1.5-.5-1q-.5-1-6.8-16l-6.2-15h-2l-.2-1-.3-1-.3-1-.2-1 1 .2 1 .3.2.3.3.2.3-.2.2-.3h6l4.2 2.3q4.3 2.2 4.6 3.2.2 1 3 3.5 2.7 2.5 4.7 6.5t1.5 12.5-1 10 0 4.5l.5 3 .3.2.2.3.2.3.3.2.3.2.2.3-.2.3-.3.2-.3.2-.2.3 2.5.3 2.5.2v.5l-1 .5-1 .5-1 .5q-1 .5-14.5 6l-13.5 5.5-1 .5-1 .5-1.5.5-1.5.5-.2.3-.3.2-.3.2-.2.3.2.3.3.2.5 1.5.5 1.5.3.2.2.3h2l1-.5 1-.5 1-.5 1-.5 95.5-39q95.5-39 96.5-39.3zm-2 4.8q0-1 1-1t1 1-1 1-1-1zm-251.8 36.2l.3-.2.3.2.2.3h-.5q-.5 0-.3-.3zM805.5 664v1l-.3.2q-.2.3-9.7 4.3t-38 15.3L729 696l-.2-1q-.3-1-15.3-36.5l-15-35.5.3-.2.2-.3 36.5-15.5q36.5-15.5 38-15.8 1.5-.2 16.7 35.8 15.3 36 15.3 37zm-112.7 48l.2 1-1.5.2q-1.5.3-38 15.6L617 744l-.2-1q-.3-1-15.3-36.5l-15-35.5 36.3-15.8q36.2-15.7 38-15.4 1.7.2 16.7 35.7t15.3 36.5z" fill="#a19479" stroke="#a19479"/><path d="M411.2 561.5L411 505v.2q0 .3.5.6l.5.2 6.2 14.5q6.3 14.5 6.6 15.5l.2 1v.2q0 .3-.8 0l-.7-.2-.3 52.5-.2 52.5 15.5 1.8q15.5 1.7 21 3.2t7.5 2l2 .5 1.5.5 1.5.5 1 .3 1 .2-.2-1-.3-1-.5-1-.5-1-.5-1.5-2-6q-1.5-4.5.2-1.5l1.8 3 .2.5.6 1 .2.5 4.8 9q4.7 9 5.2 10.5l.5 1.5.3.2.2.3.2.3.3.2.3.2.2.3.2.3.3.2.3.2.2.3.2.3.3.2.3.2.2.3 1 .3 1 .2v.2q0 .3.5.6l.5.2 11 8.8q11 8.7 11.5 9.2t1.5 1l1 .5.2.3.3.2.3.2.2.3.2.3.3.2.3.2.2.3.2.3.3.2.3.2.2.3.2.3.3.2.3.2.2.3.2.3.3.2.3.2.2.3.2.3.3.2v-2l-.5-1.5-.5-1.5-.5-1.5-.5-1.5-.5-2q-.5-2-3-8.5t-8-20l-5.5-13.5-.5-1-.5-1-.5-1.5-.5-1.5-.5-1.5-.5-1.5h-.5l-.2-.5q-.3-.5-.8-2.5t-3.2-10.2q-2.8-8.3-6.6-16.6-3.7-8.2-9.7-23.7l-6-15.5-.5-1.5-.5-1.5-.3-.2-.2-.3v-.5l1 .2 1 .3.2.3.3.2.3.2.2.3.2.3.3.2.3.2.2.3 1 .3 1 .2.2-1.5.3-1.5.3.2.2.3.2.3.3.2 50.7 115.5Q579 793 583.5 792.8q4.5-.3 8.5-1.3t9.5-1.3l5.5-.2v.5l-1 .5-1 .5-.2.3-.3.2-.5 1-.5 1-.3.2-.2.3-.2.3-.3.2-.3.2-.2.3-1 .5-1 .5-2 .5q-2 .5-3 1t-10.5.5T571 795t-6.8-8.2l-2.7-4.8-.3-.2-.2-.3-.2-.3-.3-.2-.3-.2-.2-.3-1-.3-1-.2v-2h-2l.2 3.5.3 3.5.3 5.5q.2 5.5-.8 5.5t-1 2v2l-.2 1.5-.3 1.5v7l7.7 5.8q7.8 5.7 10.8 7.2t4 2l1 .5 2.5.5 2.5.5 1.5.5 1.5.5v.5l-2.5-.2-2.5-.3-3.5-.5q-3.5-.5-11.5-4.5l-8-4-.2-.3-.3-.2-.3.2-.2.3-.2.3-.3.2-4.5 10.5q-4.5 10.5-5 11.5l-.5 1-.3.5-.2.5-9.8 13q-9.7 13-25.4 27.2-15.8 14.3-17 15-1.3.8-.8 4.8t-1.8 7.8q-2.2 3.7-7.2 6.2t-19.5 5.5-28.5 4-30.5 1.3l-16.5.2h-7l-.2-.5-.3-.5-.3-.2-.2-.3-1-.5-1-.5-.2-.3-.3-.2-.3-.2-.2-.3-1-.5-1-.5-.2-.3-.3-.2-.3-.2-.2-.3-.2-.3q-.3-.2-3-1.4-2.8-1.3-8-6.6-5.3-5.2-5.3-8.7t1.7-3.3q1.8.3 2-1.4.3-1.8-5-7-5.2-5.3-11-11l-5.7-5.8-.5-1-.5-1-.3-.2-.2-.3-.2-.3-.3-.2-.5-1-.5-1-.3-1-.2-1 2 .2 2 .3.2.3.3.2.3.2.2.3 1 .5 1 .5.2.3.3.2.3.2.2.3 7 4.5q7 4.5 28 8t37 2.5 23.8-3.3q7.7-2.2 14.7-6.2t8-5.5 1.3-1.7l.2-.3-.2-.3-.3-.2-.3-.2-.2-.3-.2-.3-.3-.2-.3-.2-.2-.3.2-.3.3-.2.5-1 .5-1 .3-.2.2-.3.2-.3.3-.2v-2l-.3.2-.2.3-.2.3-.3.2-.3.2-.2.3-.2.3-.3.2-.3.2-.2.3h-1.5q-1.5 0-1.3-1.3.3-1.2-.4.3-.8 1.5-2.8 1.7l-2 .3h-3l-.2-.3-.3-.2h-.5v-.5l1.5-.5 1.5-.5 1-.5 1-.5.2-.3.3-.2.3-.2.2-.3 1-.5q1-.5 4-1.8 3-1.2 3-2.2t1-1.2q1-.3 6.8-6l5.7-5.8.5-1 .5-1 .3-.2.2-.3.2-.3.3-.2.3-1.5.2-1.5h2l-.2 1-.3 1v8l.3 1.5.2 1.5h5v2l1-.2 1-.3.2-.3.3-.2.3-.2q.2-.3 2.7-1.3t10.5-8 13.2-14.7q5.3-7.8 7.8-18.3t3-23-.5-18-3.3-13.5l-2.2-8-.2-1.5-.3-1.5-.5-1-.5-1-.3-.2-.2-.3-.2-.3-.3-.2-.3-.2-.2-.3-.2-.3-.3-.2-.5-1q-.5-1-5.5-6t-14.3-16q-9.2-11-17-16.5-7.7-5.5-26-14.3-18.2-8.7-29.2-11.4-11-2.8-10.8-5.3.3-2.5-.2-4t-.5-4-.7-3.3q-.8-.7-18.8-1.7l-18-1h-5l-.2-.3-.3-.2-.3-.2-.2-.3-.2-.3-.3-.2-.3-.2-.2-.3-.2-.3-.3-.2-.3-.2-.2-.3.2-.3.3-.2.3-.2.2-.3v-.5l.5-.2.5-.3v-.5l.5-.2.5-.3 1.5-.5q1.5-.5 5-1.2 3.5-.8 4.7-36.3l1.3-35.5h.5l.2 36.5.3 36.5.3.2.2.3h1l5.5-1.5q5.5-1.5 7.5-3t3.5 0 3.5 1.5h2l.2-.3.3-.2.3-.2.2-.3.2-.3.3-.2.5-14.5q.5-14.5.2-71zm55 311.7q.3-.2.6 0 .2.3-.3.3t-.3-.3z" fill="#2f2f2e" stroke="#2f2f2e"/><path d="M651.8 284.5l.2 1.5-.2.5-.3.5-.3.2-.2.3.2.3.3.2v2q0 2-.7 5-.8 3-3.8 3.2-3 .3-3.5 1.6-.5 1.2-4 2.4-3.5 1.3-11.5 4.3t-9 3.5-13 5.5l-12 5-.2.3-.3.2-.3.2-.2.3-1 .5-1 .5-.2.3-.3.2h-.5l.2-1 .3-1 .3-.2.2-.3.2-.3.3-.2v-1.5q0-1.5-.3-1.7l-.2-.3.5-1.3q.5-1.2 2.5-1.4l2-.3.2-.3.3-.2.3-.2.2-.3-1-.5-1-.5-.2-.3-.3-.2-.3 1-.2 1-1-.2-2-.6q-1-.2-1-1.7t-8.8-6q-8.7-4.5-13-6-4.2-1.5-4.7-3.5t-2-1.8q-1.5.3-6.5-2.2t-9-3.8q-4-1.2-4-.2t-1.5 1.2q-1.5.3-5-3.2t-4.3-2.8q-.7.8-8.4-16-7.8-16.7-23.3-10.4Q484 262 484 261t-2.5-1.5-2.5-1.5-3 0-4.5-3l-1.5-4h-1.5q-1.5 0-1.5 2t-1 2-4.8-5q-3.7-5-5.4-5.8-1.8-.7-2.3.6-.5 1.2-1.5 1-1-.3-4.2-4-3.3-3.8-5.6-4.3-2.2-.5-2.2.5t-3-.5-3.2-2.5q-.3-1-2.6-2.2-2.2-1.3-2.7 0-.5 1.2-4-.8t-3.7-3q-.3-1-2.6-2-2.2-1-2.2 0t-1.5.8q-1.5-.3-4.3-3.6-2.7-3.2-4.4-4-1.8-.7-2.3.6-.5 1.2-1.5 1-1-.3-4-3.6-3-3.2-4.5-3-1.5.3-2.3 1.6-.7 1.2-5-3-4.2-4.3-6-3.6-1.7.8-4.4.3-2.8-.5-4.8-3.7-2-3.3-3-2.8t-1.5 1.8q-.5 1.2-1.5 1-1-.3-4.2-4-3.3-3.8-4.6-4-1.2-.3-1.7 1.4-.5 1.8-4.3-1.7-3.7-3.5-6.4-5-2.8-1.5-3 .5-.3 2-2.6.2-2.2-1.7-4.4-5-2.3-3.2-2.6-2.2-.2 1-1.2 1t-1.2 1.5q-.3 1.5-2 .5-1.8-1-1.8-2t-1.5-1.8q-1.5-.7-4-1l-2.5-.2-.2-.5q-.3-.5-.6-.5h-.2l-3.8-8.5q-3.7-8.5-3.2-11t47.2-22.3q46.8-19.7 48.3-20.2l1.5-.5.2-.3.3-.2.3-.2.2-.3 1-.3 1-.2-.2.5-.3.5-.3.2-.2.3.8 3.7q.7 3.8 6.7 17.3t6.3 14.5l.2 1 10.5-3.8q10.5-3.7 15.5-5.7t6-2.5l1-.5.2-.3.3-.2v-1.5q0-1.5-7.3-18-7.2-16.5-9.7-16.5H436v-.5l1.5-.5 1.5-.5L493 85q54-22.5 58.2-22.2 4.3.2 52.3 110.2t48.3 111.5z" fill="#b6aa91" stroke="#b6aa91"/><path d="M359.5 657.8L371 652v1q0 1-1 1.2l-1 .3.2.3.3.2.3.2.2.3.2.3.3.2.3.2.2.3.2.3.3.2.3.2.2.3h5l18 1q18 1 18.8 1.7.7.8.7 3.3t.5 4 .2 4q-.2 2.5 10.8 5.3 11 2.7 29.2 11.4 18.3 8.8 26 14.3 7.8 5.5 17 16.5 9.3 11 14.3 16t5.5 6l.5 1 .3.2.2.3.2.3.3.2.3.2.2.3.2.3.3.2.5 1 .5 1 .3 1.5.2 1.5h-.5l-.5-1-.5-1-.3-.2-.2-.3-.2-.3-.3-.2-.3-.2-.2-.3-.2-.3-.3-.2-.3-.2-.2-.3-.2-.3-.3-.2-.3-.2-.2-.3-.2-.3-.3-.2-.3-.2-.2-.3-.2-.3q-.3-.2-2.6-2-2.2-1.7-8.7-5.7T496 731l-2 .5h-3l-1 .5-1 .5-.2.3-.3.2-.5 1-.5 1-.5 1-.5 1-.3.2-.2.3.8 1.3q.7 1.2 1.2 4.2l.5 3 .3.2.2.3.2.3.3.2.5 1 .5 1 .3 1 .2 1h-2l-.2-1.5-.3-1.5-.3-.2-.2-.3-.2-.3-.3-.2-.3-.2-.2-.3-.2-.3-.3-.2-.5-1-.5-1-.3-.2q-.2-.3-3.7-4.8t-10-15.2q-6.5-10.8-10-12.8t-3.5-3-2.8-2.5q-2.7-1.5-17-5.3-14.2-3.7-28.7-2.7t-21 3.5-17.5 10.5-21.5 18.5L339 740.5l-.2.3-.3.2-.3.2-.2.3-.2.3-.3.2-.3.2-.2.3-.2.3-.3.2-.5 1-.5 1-.5 1-.5 1h-.5l.2-2.5.3-2.5.5-3q.5-3 1.8-6.5 1.2-3.5 2.2-3.5t.8-3.5l-.3-3.5-.3.2-.2.3h-2l-.2-.3-.3-.2-.3-.2-.2-.3h-3q-3 0-6.5 2l-3.5 2-.2.3-.3.2-.3.2-.2.3-.2.3-.3.2-.3.2-.2.3-.2.3-.3.2-.3.2-.2.3h-1l-.2-.3-.3-.2-.3-2-.2-2 .2-.5.3-.5.5-1 .5-1 .5-1q.5-1 4.5-9.5l4-8.5v-3l-.3-1.5-.2-1.5-1 .2-1 .3-.2.3-.3.2-.3.2-.2.3-1 .3-1 .2v-2l-1 .2-1 .3-.2.3-.3.2-.3.2-.2.3-7.2 8.3q-7.3 8.2-14.8 21.7t-10 23-3 12l-.5 2.5-.5 2-.5 2-.5 1.5-.5 1.5h-.5l-.2-1-.3-1-.3-2-.2-2h-2v-2l.2-3.5q.3-3.5 4.3-16T295 719t18.5-25 22.7-21.2q11.8-9.3 23.3-15z" fill="#494949" stroke="#494949"/><path d="M881 615l1-.5h3l.2.3.3.2.3 1.5.2 1.5-1 .2-1 .3-1 .5-1 .5-1 .5-1 .5-1.5.5q-1.5.5-3.5 1.5l-2 1-1 .5-1 .5-1.5.5-1.5.5-1.5.3-1.5.2-.2-1.5-.3-1.5-.3-.2-.2-.3.2-.3.3-.2.3-.2.2-.3 1-.5q1-.5 3.8-1.8 2.7-1.2-1.8-12.2t-10.2-11.8l-5.8-.7-.2-.3-.3-.2 1.3-11.8Q854 570.5 863 567t10.2-.2q1.3 3.2.8 10.2t-2.8 10.2q-2.2 3.3-3.4 4-1.3.8-.8 4.3t4.2 12.5q3.8 9 6.3 8.2 2.5-.7 3.5-1.2z" fill="#494438" stroke="#494438"/><path d="M485.2 743.8l.3.2.5 1 .5 1 .3.2.2.3.2.3.3.2.3.2.2.3.2.3.3.2.5 1q.5 1 .8 1h.2v.2q0 .3.5.6l.5.2 2.2 7q2.3 7 3.3 16.5t.5 18.5-4 21-6.5 18.5-3.3 7l-.2.5h-.2q-.3 0-.6.5l-.2.5h-.2q-.3 0-.8 1l-.5 1-.3.2-.2.3-.2.3-.3.2-.5 1-.5 1-5.7 5.8q-5.8 5.7-6.8 6-1 .2-1 1.2t-3 2.2q-3 1.3-4 1.8l-1 .5-.2.3-.3.2-.3.2-.2.3-1 .5-1 .5-1.5.5-1.5.5v.5l-1 .2q-1 .3-7.5 2.8t-23.5 3-28-2.5-21-8.5-16.2-11.8l-6.3-6.2-.3-.2-.2-.3-.2-.3-.3-.2-.3-.2-.2-.3-.2-.3-.3-.2-.3-.2-.2-.3-.2-.3-.3-.2-.3-.2-.2-.3-.2-.3-.3-.2-.3-.2-.2-.3-.2-.3-.3-.2h-.5l-.2-.5q-.3-.5-5.3-11t-7.5-18-2.5-24.5 3.7-27.5L334 747h.5l.5-1 .5-1 .5-1 .5-1 .3-.2.2-.3.2-.3.3-.2.3-.2.2-.3.2-.3.3-.2.3-.2.2-.3 10.5-10.5q10.5-10.5 21.5-18.5t17.5-10.5 21-3.5 28.7 2.7q14.3 3.8 17 5.3 2.8 1.5 2.8 2.5t3.5 3 10 12.8q6.5 10.7 10 15.2t3.7 4.8zM410.5 716q12.5-.5 18.5 1t15 5.5 15.5 10 10.7 11.7q4.3 5.8 7.8 14.8t4 22-.5 17.5-6 14.5-12 17-16.3 12.2q-9.2 5.3-19.2 7.3t-22 1-20-4.5-16-9.5-13.2-12.7q-5.3-6.8-8.8-16.8t-4-22 1-17.5 6-14.5 8.8-13.8q4.2-4.7 11.4-10 7.3-5.2 17-9 9.8-3.7 22.3-4.2z" fill="#363636" stroke="#363636"/><path d="M639.5 542v1l-.3.2-.2.3-1.5.5q-1.5.5-3.5 1.5l-2 1-1.5.5-1.5.5-1 .5-1 .5-1.5.5-1.5.5-2 .3-2 .2.2-1.5q.3-1.5.8-3.5t-7.5-20-9.7-18.8l-1.8-.7-.2-.3-.3-.2v-2l.3-.2.2-.3 1-.5 1-.5 1-.5 1-.5 8.5-3q8.5-3 8.7 1.7.3 4.8 8.3 23.3t8 19.5z" fill="#403b30" stroke="#403b30"/><path d="M278.2 768.5l.8-4.5v2h2l.2 2 .3 2 .3 1 .2 1 2.2 19.5q2.3 19.5 7.8 34.5t13.2 22q7.8 7 8 8l.3 1 .3.2.2.3.2.3.3.2.3.2.2.3.2.3.3.2.3.2.2.3.2.3.3.2.3.2.2.3h2l.2-.3.3-.2v-2l-.5-1.5-.5-1.5-.3-3-.2-3h2v-1.5q0-1.5.8-2 .7-.5 3 .3 2.2.7 8.7 4 6.5 3.2 6.5 4.2t1.2 1.5q1.3.5 1.6-.5.2-1 1.2-1t1 1 1.2 0q1.3-1 1-1.2l-.2-.3.2-.3q.3-.2.6-1.2.2-1-.8-1t-1.8-3.5l-.7-3.5-.5-1-.5-1-.3-1.5-.2-1.5h.5l.3.2.2.3.2.3.3.2.3.2.2.3.2.3.3.2.3.2.2.3.2.3.3.2.3.2.2.3.2.3.3.2.3.2.2.3.2.3.3.2 6.3 6.2q6.2 6.3 16.2 11.8t21 8.5 28 2.5 23.5-3 7.5-2.8l1-.2h.5l.3.2.2.3h3l2-.3q2-.2 3-1.4 1-1.3 2-.8t1.5.5h.5l.2-.3.3-.2.3-.2.2-.3.2-.3.3-.2.3-.2.2-.3 1-.3 1-.2v2l-1 .2-1 .3-.2.3-.3.2-.3.2-.2.3-.2.3-.3.2-.3.2-.2.3.2.3.3.2.3.2.2.3 1.5.5 1.5.5-.2.3-.3.2-.3.2-.2.3-.2.3-.3.2v1q0 1-2 2t-9 5-14.7 6.2q-7.8 2.3-23.8 3.3t-37-2.5-28-8l-7-4.5-.2-.3-.3-.2-.3-.2-.2-.3-1-.5-1-.5-.2-.3-.3-.2-.3-.2-.2-.3-2-.3-2-.2.2 1 .3 1 .5 1 .5 1 .3.2.2.3.2.3.3.2.5 1 .5 1 5.7 5.8q5.8 5.7 11 11 5.3 5.2 5 7-.2 1.7-2 1.4-1.7-.2-1.7 3.3t5.3 8.7q5.2 5.3 8 6.6 2.7 1.2 3 1.4l.2.3.2.3.3.2.3.2.2.3 1 .5 1 .5.2.3.3.2.3.2.2.3 1 .5 1 .5.2.3.3.2.3.5.2.5-8-.2q-8-.3-14-1.3t-13-3.7q-7-2.8-9.8-6.3-2.7-3.5-4-13.5-1.2-10-8.7-16t-10.3-9.5q-2.7-3.5-10.4-13.7-7.8-10.3-13.6-23-5.7-12.8-8.7-24.3T278 789t.2-20.5zm70.8 88l.5.5.3.2.2.3.2.3.3.2.3.2.2.3h-2l-.2-.3q-.3-.2-.3-1.2t.5-.5zm111.2 9.7q.3-.2.6 0 .2.3-.3.3t-.3-.3z" fill="#4c4c4c" stroke="#4c4c4c"/><path d="M805.5 664v1l-.3.2q-.2.3-9.7 4.3t-38 15.3L729 696l-.2-1q-.3-1-15.3-36.5l-15-35.5.3-.2.2-.3 36.5-15.5q36.5-15.5 38-15.8 1.5-.2 16.7 35.8 15.3 36 15.3 37zm-43 3v2l-.3 1-.2 1-1 .2-1 .3h-3l-.2-.3-.3-.2-.3-.2-.2-.3-.2-.3-.3-.2-.3-.2-.2-.3h5l.2-.3.3-.2v-1.5q0-1.5-5-13l-5-11.5-.5-1-.5-1-.3-.2-.2-.3h-1.5q-1.5 0-3.5 2.7-2 2.8-7.5 3-5.5.3-7.5 1.3l-2 1-.2.3-.3.2-.3.2-.2.3-.2.3-.3.2-.3.2-.2.3-.2.3-.3.2-.3-.2-.2-.3-.2-.3-.3-.2v-9l3.5-7q3.5-7 7.2-10.2 3.8-3.3 4.8-3.6 1-.2 1-1.7t11.5-.7q11.5.7 17 4.2t7 5.8q1.5 2.2-3.5 3-5 .7-8 4-3 3.2-8 3.2t.8 13.5q5.7 13.5 5.7 15.5z" fill="#a3967b" stroke="#a3967b"/><path d="M258.8 146l.2-1 1.5.2 1.5.3.2.3.3.2.3.2.2.3 8.8 6.3q8.7 6.2 9 6.7l.2.5-1-.2q-1-.3-5.5-1.6-4.5-1.2-3 1l1.5 2.3 12.8 12.7Q298.5 187 307 200t25 51.5 56.5 142 60 150T480 615t12 26l.5 1 .5 1 .5 1 .5 1 .5 1 .5 1 .5 1 .3-.2.2-.3 1-.3 1-.2v-13h.5l.5 1.5.5 1.5.5 1.5.5 1.5.5 1 .5 1 5.5 13.5q5.5 13.5 8 20t3 8.5l.5 2 .5 1.5.5 1.5.5 1.5.5 1.5v2l-.3-.2-.2-.3-.2-.3-.3-.2-.3-.2-.2-.3-.2-.3-.3-.2-.3-.2-.2-.3-.2-.3-.3-.2-.3-.2-.2-.3-.2-.3-.3-.2-.3-.2-.2-.3-.2-.3-.3-.2-.3-.2-.2-.3-1-.5q-1-.5-1.5-1t-11.5-9.2l-11-8.8-.2-.5q-.3-.5-.6-.5h-.2l.2-.5q.3-.5.3-1v-.5l-.3-.2-.2-.3-.2-.3-.3-.2-.5-3.5q-.5-3.5-22-50.5t-58-136-67.5-162-38-87-16-25.5-17.7-18.7q-8.8-7.3-12.3-9-3.5-1.8-3.5-.8t-1 1h-1l.2-1 .3-1 .5-1.5q.5-1.5 3-11l2.5-9.5.5-1 .5-1 .3-1zm8.4 9.8q-.2-.3 0-.6.3-.2.3.3t-.3.3zm230 493.4q.3-.2.6 0 .2.3-.3.3h-.5l.2-.3z" fill="#8c8c8c" stroke="#8c8c8c"/><path d="M692.8 712l.2 1-1.5.2q-1.5.3-38 15.6L617 744l-.2-1q-.3-1-15.3-36.5l-15-35.5 36.3-15.8q36.2-15.7 38-15.4 1.7.2 16.7 35.7t15.3 36.5zm-35.3-9.2l-1.5.2-.2-1.5-.3-1.5-.5-1-.5-1-.5-1q-.5-1-5.8-12.2-5.2-11.3-8.2-10.6l-3 .8.2-1 .3-1 .5-1 .5-1 1.7-5q1.8-5 9-2 7.3 3 4.8 4.5t3.5 16.5 3.7 16.2q-2.2 1.3-3.7 1.6z" fill="#988a6f" stroke="#988a6f"/><path d="M762.5 667v2l-.3 1-.2 1-1 .2-1 .3h-3l-.2-.3-.3-.2-.3-.2-.2-.3-.2-.3-.3-.2-.3-.2-.2-.3h5l.2-.3.3-.2v-1.5q0-1.5-5-13l-5-11.5-.5-1-.5-1-.3-.2-.2-.3h-1.5q-1.5 0-3.5 2.7-2 2.8-7.5 3-5.5.3-7.5 1.3l-2 1-.2.3-.3.2-.3.2-.2.3-.2.3-.3.2-.3.2-.2.3-.2.3-.3.2-.3-.2-.2-.3-.2-.3-.3-.2v-9l3.5-7q3.5-7 7.2-10.2 3.8-3.3 4.8-3.6 1-.2 1-1.7t11.5-.7q11.5.7 17 4.2t7 5.8q1.5 2.2-3.5 3-5 .7-8 4-3 3.2-8 3.2t.8 13.5q5.7 13.5 5.7 15.5z" fill="#453f34" stroke="#453f34"/><path d="M468.5 251h1.5l1.5 4q1.5 4 4.5 3t3 0 3.5 1 4 .8q.5.7 14.5-4.8t21.8 11.2q7.7 16.8 8.4 16 .8-.7 4.3 2.8t5 3.2q1.5-.2 1.5-1.2t4 .2q4 1.3 9 3.8t6.5 2.2q1.5-.2 2 1.8t4.7 3.5q4.3 1.5 13 6 8.8 4.5 9.3 5.7.5 1.3 1.5 1.3t1.2.3l.3.2.3-.2.2-.3.2-.3.3-.2.3.2.2.3 1 .5 1 .5-.2.3-.3.2-.3.2-.2.3-2 .3q-2 .2-2.5 1.4l-.5 1.3.2.3q.3.2.3 1.7v1.5l-.3.2-.2.3-.2.3-.3.2-.3 1-.2 1-1 .2q-1 .3-18.5 8L553 339l-.5.2q-.5.3-.5.6v.2l-1.5.2q-1.5.3-3.5 1.3t-65.5 27-68.3 29.3l-4.7 3.2-.5 1-.5 1-.3-1.5-.2-1.5h-2l-.2-2q-.3-2-32.3-75.5t-43-96.5l-11-23-.5-1-.5-1-.3-.2-.2-.3-.2-.3-.3-.2-.3-1.5-.2-1.5.2-1 .3-1 .3.2.2.3.2.3.3.2.5 1 .5 1 .3.2.2.3.2.3.3.2.5 1 .5 1 .3.2.2.3.2.3.3.2.3.2.2.3.2.3.3.2.3.2.2.3.2.3.3.2v-3l-.5-1-.5-1-.5-1-.5-1-.5-1-.5-1-.5-1q-.5-1-1.8-5l-1.2-4-.5-.2q-.5-.3-.5-.6v-.2l2.5.2q2.5.3 4.5 1.6 2 1.2 2 2.2t1.8 2q1.7 1 2-.5.2-1.5 1.2-1.5t1.2-1q.3-1 2.6 2.2 2.2 3.3 4.4 5 2.3 1.8 2.6-.2.2-2 3-.5 2.7 1.5 6.4 5 3.8 3.5 4.3 1.7.5-1.7 1.7-1.4 1.3.2 4.6 4 3.2 3.7 4.2 4 1 .2 1.5-1 .5-1.3 1.5-1.8t3 2.8q2 3.2 4.8 3.7 2.7.5 4.4-.3 1.8-.7 6 3.6 4.3 4.2 5 3 .8-1.3 2.3-1.6 1.5-.2 4.5 3 3 3.3 4 3.6 1 .2 1.5-1 .5-1.3 2.3-.6 1.7.8 4.4 4 2.8 3.3 4.3 3.6 1.5.2 1.5-.8t2.2 0q2.3 1 2.6 2 .2 1 3.7 3t4 .8q.5-1.3 2.7 0 2.3 1.2 2.6 2.2.2 1 3.2 2.5t3 .5 2.2-.5q2.3.5 5.6 4.3 3.2 3.7 4.2 4 1 .2 1.5-1 .5-1.3 2.3-.6 1.7.8 5.4 5.8 3.8 5 4.8 5t1-2 1.5-2z" fill="#a09378" stroke="#a09378"/><path d="M400.5 929l-11.5-.5v-.5l16.5-.2q16.5-.3 30.5-1.3t28.5-4T484 917t7.2-6.2q2.3-3.8 1.8-7.8t.8-4.8q1.2-.7 17-15 15.7-14.2 25.4-27.2l9.8-13 .2 1 .3 1 .3-.2.2-.3.2-.3.3-.2.3-.2.2-.3.2-.3.3-.2.3-.2.2-.3 2 2q2 2 40.5 5t52 7.5 18.3 9.2q4.7 4.8 6.2 7.8t1 10.5-5.8 13.3Q658 903.5 648 908t-37 10-48.5 8.5-86 3-76-.5z" fill="#cdcdcd" stroke="#cdcdcd"/><path d="M918.8 614.5l.2.5v.2q0 .3.5.6l.5.2-.2.5-.3.5-.3.2-.2.3-1 .5q-1 .5-38.5 15.8L842 649l-.2-1q-.3-1-13.3-31t-15-36 .7-7.2l2.8-1.3v-.5l34-14.2q34-14.3 35.8-14 1.7.2 16.7 35.2t15.3 35.5zm-37.8.5l1-.5h3l.2.3.3.2.3 1.5.2 1.5-1 .2-1 .3-1 .5-1 .5-1 .5-1 .5-1.5.5q-1.5.5-3.5 1.5l-2 1-1 .5-1 .5-1.5.5-1.5.5-1.5.3-1.5.2-.2-1.5-.3-1.5-.3-.2-.2-.3.2-.3.3-.2.3-.2.2-.3 1-.5q1-.5 3.8-1.8 2.7-1.2-1.8-12.2t-10.2-11.8l-5.8-.7-.2-.3-.3-.2 1.3-11.8Q854 570.5 863 567t10.2-.2q1.3 3.2.8 10.2t-2.8 10.2q-2.2 3.3-3.4 4-1.3.8-.8 4.3t4.2 12.5q3.8 9 6.3 8.2 2.5-.7 3.5-1.2zm-34.5-41.2q3.5-.8 3.7 1.2.3 2-.7 10t-4.5 5.5-6-7.5.8-6.8q3.2-1.7 6.7-2.4z" fill="#ada187" stroke="#ada187"/><path d="M333 721.5h3l.2.3.3.2.3.2.2.3h2l.2-.3.3-.2.3 3.5q.2 3.5-.8 3.5t-2.2 3.5q-1.3 3.5-1.8 6.5l-.5 3-.3 2.5-.2 2.5-3.8 10.5q-3.7 10.5-3.7 27.5t2.5 24.5 7.5 18 5.3 11l.2.5.2 1.5.3 1.5.5 1 .5 1 .7 3.5q.8 3.5 1.8 3.5t.8 1q-.3 1-.6 1.2l-.2.3 1.5.3 1.5.2.2 1.5.3 1.5.3.2.2.3.2.3.3.2.3.2.2.3h-2l-1.5-.5-1.5-.5-.2-.3-.3-.2-.3-.2-.2-.3-2-.5q-2-.5-3-.8-1-.2-1-1.2t-6.5-4.2q-6.5-3.3-8.7-4-2.3-.8-3-.3-.8.5-.8 2v1.5h-2l-.2-.5-.3-.5-.5-1q-.5-1-2.5-5.5T308 824t-6-26.5 0-30 8.8-30L318 724l.2 2 .3 2 .3.2.2.3h1l.2-.3.3-.2.3-.2.2-.3.2-.3.3-.2.3-.2.2-.3.2-.3.3-.2.3-.2.2-.3 3.5-2q3.5-2 6.5-2z" fill="#5c5c5c" stroke="#5c5c5c"/><path d="M254.8 126.8l.2-.3.2-.3.3-.2.3.2.2.3 1 .5 1 .5h2l.2-.3.3-.2.3.2.2.3.2.3.3.2.3.2.2.3.2.3.3.2v1l-.7 5.2q-.8 5.3 12 15 12.7 9.8 13 10.8l.2 1 1 .2 1 .3.2.3.3.2.3.2.2.3.2.3.3.2.3.2.2.3 1 .3 1 .2v2h-3l-.5-.2-.5-.3v-.5l-.5-.2-.5-.3-.2-.3-.3-.2-.3-.2-.2-.3-.2-.3-.3-.2-.3-.2-.2-.3-.2-.3-.3-.2-.3-.2q-.2-.3-2.2-1.6l-2-1.2-.2-.5q-.3-.5-9-6.7l-8.8-6.3-.2-.3-.3-.2-.3-.2-.2-.3-1.5-.3-1.5-.2-.2 1-.3 1-.5 1-.5 1-2.5 9.5q-2.5 9.5-2.8 11.5l-.2 2-.5.2q-.5.3-.5.6v4.2h-.5v3l.3.2.2.3.8.7q.7.8 1 1l.2.3 1 .3 1 .2v2l-1-.2q-1-.3-3-.8t-3 2.8l-1 3.2-1-.2-1-.3-.2-.3-.3-.2-.3-.2-.2-.3-.2-.3-.3-.2-.5-1-.5-1-.3.2-.2.3-.2.3-.3.2-.3.2-.2.3h-1q-1 0-1-1.7V184l.2-1 .3-1 .3-2.5.2-2.5-2-.2-2-.3-2-.5-76-19-74-18.5-1.5-.5-1.5-.5-.2-.3-.3-.2v-4l.3-.2.2-.3v-.5l.5-.2.5-.3.2-.3.3-.2.5-1 .5-1 .3.2.2.3h1l.2-.3.3-.2.3.2.2.3 56 13q56 13 63.5 13.5t13.5.5h6l2-.5 2-.5.2-.3.3-.2.3-.2.2-.3.2-.3.3-.2v-1l-.5-1-.5-1-.3-.2-.2-.3-.2-.3-.3-.2-.3-.2-.2-.3-.2-.3-.3-.2-.3-.2-.2-.3-1-.5-1-.5-1-.5q-1-.5-4-1.5t-67.5-18.3L88 110v-4l1.5-4.8q1.5-4.7 82 14.6Q252 135 253.2 131q1.3-4 1.6-4.2z" fill="#272727" stroke="#272727"/><path d="M111.2 175.5L116 155l56.5 13.8Q229 182.5 231 183l2 .5 3 .3 3 .2v1.8q0 1.7 1 1.7h1l.2-.3.3-.2.3-.2.2-.3.2-.3.3-.2.5 1 .5 1 .3.2.2.3.2.3.3.2.3.2.2.3 1 .3 1 .2.2-2.5q.3-2.5.6-2.7.2-.3 2.7-.6 2.5-.2 1.5-2l-1-1.7-.2-.3-.3-.2v-3h.5v.5l.2.3.3.2.3.2.2.3.2.3.3.2.3.2.2.3.2.3.3.2.3.2.2.3.2.3.3.2 11 11q11 11 16.5 20t11.5 22.5 6.5 17 1.8 4q1.2.5 6 11.5 4.7 11 5.2 12l.5 1 .5 1.5.5 1.5.3.5.2.5v.5l.2.3.3.2.3.5.2.5v1h-2l-.2-1.5-.3-1.5-.5-1-.5-1-.3-.2-.2-.3-.2-.3-.3-.2-.5-1q-.5-1-5-7.5T289.5 254l-12-12-.3-.2-.2-.3-1.5-.3q-1.5-.2-2.3 2.8-.7 3-3.4 3.2l-2.8.3-1.5-.3-1.5-.2.2-2q.3-2 1-5.5l.8-3.5-2-.2q-2-.3-79.8-20-77.7-19.8-73-40.3z" fill="#2f2f2f" stroke="#2f2f2f"/><path d="M523.5 534l1.5-.5h2l7.8 17.7q7.7 17.8 8.2 18.8l.5 1 .5 1 .5 1 .3.5.2.5v.2q0 .3.5.6l.5.2v3.2q0 3.3-1.5 3.8l-1.5.5-1 .5-1 .5-1 .5-1 .5-1.5.5-1.5.5-1 .5-1 .5-1 .5-1 .5h-4l-.2-.3-.3-.2v-1q0-1 .5-3.5t-7-19.5l-7.5-17-.3-1-.2-1h-2l-1-.2-1-.3-.2-.3-.3-.2v-2l.3-.2.2-.3.2-.3.3-.2.3-.2.2-.3 1.5-.5 1.5-.5 1-.5 1-.5 2-1q2-1 3.5-1.5l1.5-.5 1.5-.5z" fill="#3d382e" stroke="#3d382e"/><path d="M410.5 716q12.5-.5 18.5 1t15 5.5 15.5 10 10.7 11.7q4.3 5.8 7.8 14.8t4 22-.5 17.5-6 14.5-12 17-16.3 12.2q-9.2 5.3-19.2 7.3t-22 1-20-4.5-16-9.5-13.2-12.7q-5.3-6.8-8.8-16.8t-4-22 1-17.5 6-14.5 8.8-13.8q4.2-4.7 11.4-10 7.3-5.2 17-9 9.8-3.7 22.3-4.2zm-28.3 117.2l-.2.3h-4q-4 0-6.8-2.3-2.7-2.2-8-8-5.2-5.7-9.4-15.4-4.3-9.8-4.3-25.3T354 758t13.2-17.2q8.8-8.3 14.3-10.3t14-2.5 11 .2q2.5.8 2.5 1.8t2.8 3.5q2.7 2.5 4.2 12.5t-.5 17-2 17-1.5 14.5-9.8 10.7q-8.2 6.3-14 17-5.7 10.8-6 11z" fill="#858584" stroke="#858584"/><path d="M843.5 702.8l1.5-.3h4l1 .5 1 .5 1 .5 1 .5.2.3.3.2.3.2.2.3.2.3.3.2.3-1 .2-1h.2q.3 0 .3 4.5t-1 6.5-5.3 7.8Q845 728.5 836 733t-110.5 47-112 45-19 2.8l-8.5.2v-.5l-1.5-.5-1.5-.5-2.5-.5-2.5-.5-1-.5-4-2q-3-1.5-10.8-7.2l-7.7-5.8v-7l.3-1.5.2-1.5h.5l.5-1 .5-1 .3 1 .2 1 1 .2 1 .3.2.3.3.2.3.2.2.3 4 3.5q4 3.5 8.5 4.5t18.5.5 39.5-9 88.5-36 68-29.5 24-11.5 23.5-14 5.7-5.2q1.3-.8 1.6-1.3l.2-.5 1.5-.2z" fill="#bbb" stroke="#bbb"/><path d="M515.8 742.2l.2.3.2.3.3.2.3.2.2.3.2.3.3.2.3.2.2.3.2.3.3.2.3.2.2.3.2.3.3.2.3.2.2.3.2.3.3.2.5 1 .5 1h.5l2.2 8q2.3 8 3.3 13.5t.5 18-3 23-7.8 18.3q-5.2 7.7-13.2 14.7t-10.5 8-2.7 1.3l-.3.2-.3.2-.2.3-1 .3-1 .2v-2h-5l-.2-1.5-.3-1.5v-3q0-1-.3-3.5l-.2-2.5.5-.2q.5-.3.5-.6v-.2l.2-.5q.3-.5 3.3-7T493 814t4-21-.5-18.5-3.3-16.5l-2.2-7-.2-.5q-.3-.5-.6-.5h-.2l-.2-1.5-.3-1.5-.3-.2-.2-.3-.2-.3-.3-.2-.5-3q-.5-3-1.2-4.2l-.8-1.3.2-.3.3-.2.5-1 .5-1 .5-1 .5-1 .3-.2.2-.3 1-.5 1-.5h3l2-.5q2-.5 8.5 3.5t8.7 5.7q2.3 1.8 2.6 2z" fill="#5b5b5b" stroke="#5b5b5b"/><path d="M595.5 559.5v1.5l-.3.2-.2.3-1 .5-1 .5-1.5.5-1.5.5-1 .5-1 .5-1.5.5-1.5.5-1.5.5-1.5.5-1 .5-1 .5h-3l-.2-.3-.3-.2v-1q0-1 .5-3.5t-7-20-10.2-18l-2.8-.5v-4l1-.2 1-.3 1-.5 1-.5 1.5-.5 1.5-.5 6-2q6-2 15.8 20.3 9.7 22.2 9.7 23.7z" fill="#3e3a30" stroke="#3e3a30"/><path d="M269.8 158l-2.8-3 6 2.2q6 2.3 7 2.6l1 .2 2 1.2q2 1.3 2.2 1.6l.3.2.3.2.2.3.2.3.3.2.3.2.2.3.2.3.3.2.3.2.2.3.5.3.5.2v.5l.5.3.5.2 10.2 11.5q10.3 11.5 12.8 15t2.8 3.5h.2l.2 1.5.3 1.5.3.2.2.3.2.3.3.2.5 1 .5 1 11 23q11 23 43 96.5t32.3 75.5l.2 2 3.2 10.5q3.3 10.5 23.3 58t20.3 48.5q.2 1 1.2 1t2 3.8q1 3.7 2.2 7 1.3 3.2 1.8 4.7l.5 1.5.5 1 .5 1 .5 1.5.5 1.5h.5l3.8 9.5q3.7 9.5 4 10.5l.2 1v.5l.2.3.3.2.5 1.5.5 1.5 6 15.5q6 15.5 9.7 23.7 3.8 8.3 6.6 16.6 2.7 8.2 3.2 10.2t.8 2.5l.2.5-.2 8-.3 8-.3-.2-.2-.3-.2-.3-.3-.2-.3-.2-.2-.3-.2-.3-.3-.2-.5-1-.5-1-.5-1-.5-1-.5-1-.5-1-.5-1q-.5-1-12-26t-31.5-71.5-60-150-56.5-142-25-51.5-21.2-25.8L273 161.5l-.2-.3q-.3-.2-3-3.2z" fill="#bbb" stroke="#bbb"/><path d="M320.8 696.8l.2-.3h5l1-.3 1-.2.2 1.5.3 1.5v3l-4 8.5q-4 8.5-4.5 9.5l-.5 1-.5 1-.5 1-.3.5-.2.5-7.2 13.5q-7.3 13.5-8.8 30t0 30 6 26.5 6.5 17.5 2.5 5.5l.5 1 .3.5.2.5.2 3 .3 3 .5 1.5.5 1.5v2l-.3.2-.2.3h-2l-.2-.3-.3-.2-.3-.2-.2-.3-.2-.3-.3-.2-.3-.2-.2-.3-.2-.3-.3-.2-.3-.2-.2-.3-.2-.3-.3-.2-.3-1q-.2-1-8-8-7.7-7-13.2-22t-7.8-34.5L282 772h.5l.5-1.5.5-1.5.5-2 .5-2 .5-2.5q.5-2.5 3-12t10-23 14.8-21.7l7.2-8.3.2-.3.3-.2.3-.2z" fill="#696969" stroke="#696969"/><path d="M85.2 116l2.8-10v4l64.5 17.2q64.5 17.3 67.5 18.3t4 1.5l1 .5 1 .5 1 .5.2.3.3.2.3.2.2.3.2.3.3.2.3.2.2.3.2.3.3.2.5 1 .5 1v1l-.3.2-.2.3-.2.3-.3.2-.3.2-.2.3-2 .5-2 .5h-6q-6 0-13.5-.5T142 142.5l-56-13-.2-.3-.3-.2-.3.2-.2.3h-1l-.2-.3-.3-.2-.5 1-.5 1-.3.2-.2.3-.5.3-.5.2.2-1 .3-1 .5-2q.5-2 3.2-12z" fill="#3f3f3f" stroke="#3f3f3f"/><path d="M863 460l1-.5 1.5-.3 1.5-.2.2 1 .3 1 .3 1.5.2 1.5-1 .2-1 .3-1 .5-1 .5-1.5.5q-1.5.5-66.5 27.2L731 520l-1 .2q-1 .3-96.5 39.3l-95.5 39-1 .5-1 .5-1 .5-1 .5h-2l-.2-.3-.3-.2-.5-1.5-.5-1.5-.3-.2-.2-.3.2-.3.3-.2.3-.2.2-.3 1.5-.5 1.5-.5 1-.5 1-.5 13.5-5.5q13.5-5.5 14.5-6l1-.5 1-.5 1-.5v-.5l118-47.8q118-47.7 119-48.2l1-.5 1.5-.5 1.5-.5v-.5l25.5-10.2q25.5-10.3 27-10.8l1.5-.5 1-.5z" fill="#454035" stroke="#454035"/><path d="M488 661.5l.5 3.5.3.2.2.3.2.3.3.2.3 1.5.2 1.5-1-.2-1-.3-.2-.3-.3-.2-.3-.2-.2-.3-.2-.3-.3-.2-.3-.2-.2-.3-.2-.3-.3-.2-.3-.2-.2-.3-.2-.3-.3-.2-.3-.2-.2-.3-.2-.3-.3-.2-.5-1.5q-.5-1.5-5.2-10.5l-4.8-9-.2-1q-.3-1-.6-1h-.2l-.2-1.5q-.3-1.5-23.6-52L425 537l-.2-1q-.3-1-6.6-15.5L412 506l-.2-.5q-.3-.5-.6-.5h-.2l-.2-1q-.3-1-1.3-4.5t-12.3-27L386 449l-.2-1.5q-.3-1.5-4-11-3.8-9.5-4.8-9.7-1-.3-18.2-40-17.3-39.8-25.8-60.3t-12.8-30L316 287v-1l-.2-1q-.3-1-.6-1h-.2l-.2-.5-.3-.5-.5-1.5-.5-1.5-.5-1q-.5-1-5.2-12-4.8-11-6-11.5-1.3-.5-1.8-4t-6.5-17T282 212t-16.5-20l-11-11-.3-.2-.2-.3-.2-.3-.3-.2-.3-.2-.2-.3-.2-.3-.3-.2-.3-.2-.2-.3-.2-.3-.3-.2-.3-.2-.2-.3V173h.2q.3 0 .6-.5l.2-.5 3.2.5q3.3.5 12.8 8.5t18.5 19.5 16 25.5 38 87T408 475t58 136 22 50.5z" fill="#dcdcdc" stroke="#dcdcdc"/><path d="M657.5 702.8l-1.5.2-.2-1.5-.3-1.5-.5-1-.5-1-.5-1q-.5-1-5.8-12.2-5.2-11.3-8.2-10.6l-3 .8.2-1 .3-1 .5-1 .5-1 1.7-5q1.8-5 9-2 7.3 3 4.8 4.5t3.5 16.5 3.7 16.2q-2.2 1.3-3.7 1.6z" fill="#423c30" stroke="#423c30"/><path d="M836 689l2-.5h3l.2.3.3.2.3.2.2.3.2.3.3.2 1 4q1 4-.3 5.2-1.2 1.3-1.4 1.6l-.3.2-.3.2-.2.3.2.3.3.2.3.5.2.5-.2.5q-.3.5-1.6 1.3-1.2.7-5.7 5.2T811 724t-24 11.5-68 29.5-88.5 36-39.5 9-18.5-.5-8.5-4.5l-4-3.5-.2-.3-.3-.2-.3-.2-.2-.3-1-.3-1-.2-.2-1-.3-1-.5 1-.5 1h-.5v-2q0-2 1-2t.8-5.5l-.3-5.5-.3-3.5-.2-3.5h2v2l1 .2 1 .3.2.3.3.2.3.2.2.3.2.3.3.2 2.7 4.8q2.8 4.7 6.8 8.2t13.5 3.5 10.5-.5 3-1l2-.5 1-.5 1-.5.2-.3.3-.2.3-.2.2-.3.2-.3.3-.2.5-1 .5-1 .3-.2.2-.3 1-.5 1-.5v-.5l32.5-15q32.5-15 33-16.2.5-1.3 81-35.3T836 689z" fill="#545454" stroke="#545454"/><path d="M846.5 573.8q3.5-.8 3.7 1.2.3 2-.7 10t-4.5 5.5-6-7.5.8-6.8q3.2-1.7 6.7-2.4z" fill="#494439" stroke="#494439"/><path d="M385.2 479.5l.8-30.5 11.2 23.5Q408.5 496 410 500t1.8 5l.2 1h-1q-1 0-.2 2.5.7 2.5.7 56t-.5 68l-.5 14.5-.3.2-.2.3-.2.3-.3.2-.3.2-.2.3h-2q-2 0-3.5-1.5t-3.5 0-7.5 3l-5.5 1.5h-1l-.2-.3-.3-.2-.3-36.5-.2-36.5-.2-10.5q-.3-10.5-.3-34t.7-54z" fill="#8b8b8b" stroke="#8b8b8b"/><path d="M382.2 833.2l-.2.3h-4q-4 0-6.8-2.3-2.7-2.2-8-8-5.2-5.7-9.4-15.4-4.3-9.8-4.3-25.3T354 758t13.2-17.2q8.8-8.3 14.3-10.3t14-2.5 11 .2q2.5.8 2.5 1.8t2.8 3.5q2.7 2.5 4.2 12.5t-.5 17-2 17-1.5 14.5-9.8 10.7q-8.2 6.3-14 17-5.7 10.8-6 11z" fill="#dadad9" stroke="#dadad9"/></g></svg>