<svg width="595" height="591" viewBox="0 0 595 591" fill="none" xmlns="http://www.w3.org/2000/svg">
<rect y="296.422" width="200" height="200" transform="rotate(-45 0 296.422)" fill="#1A3C55"/>
<rect x="112.585" y="236.796" width="128" height="15" transform="rotate(45 112.585 236.796)" fill="#CE2B3F"/>
<rect x="101.065" y="246.513" width="60" height="15" transform="rotate(-45 101.065 246.513)" fill="#CE2B3F"/>
<rect x="127.935" y="273.383" width="60" height="15" transform="rotate(-45 127.935 273.383)" fill="#CE2B3F"/>
<path d="M154.805 300.253L197.231 257.826L207.838 268.433L165.411 310.859L154.805 300.253Z" fill="#CE2B3F"/>
<path d="M181.675 327.123L224.101 284.696L234.708 295.303L192.281 337.729L181.675 327.123Z" fill="#CE2B3F"/>
<path d="M171.27 358.888L83.3018 270.082L93.9586 259.525L181.926 348.332L171.27 358.888Z" fill="#CE2B3F"/>
<rect x="181.641" y="348.628" width="60" height="15" transform="rotate(135.272 181.641 348.628)" fill="#CE2B3F"/>
<rect x="154.899" y="321.63" width="60" height="15" transform="rotate(135.272 154.899 321.63)" fill="#CE2B3F"/>
<path d="M128.157 294.633L85.5297 336.858L74.9736 326.201L117.601 283.976L128.157 294.633Z" fill="#CE2B3F"/>
<path d="M101.415 267.636L58.7874 309.86L48.2313 299.203L90.8586 256.979L101.415 267.636Z" fill="#CE2B3F"/>
<rect x="156.109" y="266.536" width="100" height="15" transform="rotate(135.272 156.109 266.536)" fill="#CE2B3F"/>
<path d="M182.979 293.406L111.933 363.781L101.377 353.124L172.423 282.749L182.979 293.406Z" fill="#CE2B3F"/>
<rect x="312" y="296.422" width="200" height="200" transform="rotate(-45 312 296.422)" fill="#1A3C55"/>
<rect x="424.585" y="236.796" width="128" height="15" transform="rotate(45 424.585 236.796)" fill="#CE2B3F"/>
<rect x="413.065" y="246.513" width="60" height="15" transform="rotate(-45 413.065 246.513)" fill="#CE2B3F"/>
<rect x="439.935" y="273.383" width="60" height="15" transform="rotate(-45 439.935 273.383)" fill="#CE2B3F"/>
<path d="M466.805 300.253L509.231 257.826L519.838 268.433L477.411 310.859L466.805 300.253Z" fill="#CE2B3F"/>
<path d="M493.675 327.123L536.101 284.696L546.708 295.303L504.281 337.729L493.675 327.123Z" fill="#CE2B3F"/>
<path d="M483.27 358.888L395.302 270.082L405.959 259.525L493.927 348.332L483.27 358.888Z" fill="#CE2B3F"/>
<rect x="493.641" y="348.628" width="60" height="15" transform="rotate(135.272 493.641 348.628)" fill="#CE2B3F"/>
<rect x="466.899" y="321.63" width="60" height="15" transform="rotate(135.272 466.899 321.63)" fill="#CE2B3F"/>
<path d="M440.157 294.633L397.53 336.858L386.974 326.201L429.601 283.976L440.157 294.633Z" fill="#CE2B3F"/>
<path d="M413.415 267.636L370.787 309.86L360.231 299.203L402.859 256.979L413.415 267.636Z" fill="#CE2B3F"/>
<rect x="468.109" y="266.536" width="100" height="15" transform="rotate(135.272 468.109 266.536)" fill="#CE2B3F"/>
<path d="M494.979 293.406L423.933 363.781L413.377 353.124L484.423 282.749L494.979 293.406Z" fill="#CE2B3F"/>
<rect x="156" y="449.422" width="200" height="200" transform="rotate(-45 156 449.422)" fill="#1A3C55"/>
<rect x="268.585" y="389.796" width="128" height="15" transform="rotate(45 268.585 389.796)" fill="#CE2B3F"/>
<rect x="257.065" y="399.513" width="60" height="15" transform="rotate(-45 257.065 399.513)" fill="#CE2B3F"/>
<rect x="283.935" y="426.383" width="60" height="15" transform="rotate(-45 283.935 426.383)" fill="#CE2B3F"/>
<path d="M310.805 453.253L353.231 410.826L363.838 421.433L321.411 463.859L310.805 453.253Z" fill="#CE2B3F"/>
<path d="M337.675 480.123L380.101 437.696L390.708 448.303L348.281 490.729L337.675 480.123Z" fill="#CE2B3F"/>
<path d="M327.27 511.888L239.302 423.082L249.959 412.525L337.926 501.332L327.27 511.888Z" fill="#CE2B3F"/>
<rect x="337.641" y="501.628" width="60" height="15" transform="rotate(135.272 337.641 501.628)" fill="#CE2B3F"/>
<rect x="310.899" y="474.63" width="60" height="15" transform="rotate(135.272 310.899 474.63)" fill="#CE2B3F"/>
<path d="M284.157 447.633L241.53 489.858L230.974 479.201L273.601 436.976L284.157 447.633Z" fill="#CE2B3F"/>
<path d="M257.415 420.636L214.787 462.86L204.231 452.203L246.859 409.979L257.415 420.636Z" fill="#CE2B3F"/>
<rect x="312.109" y="419.536" width="100" height="15" transform="rotate(135.272 312.109 419.536)" fill="#CE2B3F"/>
<path d="M338.979 446.406L267.933 516.781L257.377 506.124L328.423 435.749L338.979 446.406Z" fill="#CE2B3F"/>
<rect x="156" y="141.422" width="200" height="200" transform="rotate(-45 156 141.422)" fill="#1A3C55"/>
<rect x="268.585" y="81.796" width="128" height="15" transform="rotate(45 268.585 81.796)" fill="#CE2B3F"/>
<rect x="257.065" y="91.5126" width="60" height="15" transform="rotate(-45 257.065 91.5126)" fill="#CE2B3F"/>
<rect x="283.935" y="118.383" width="60" height="15" transform="rotate(-45 283.935 118.383)" fill="#CE2B3F"/>
<path d="M310.805 145.253L353.231 102.826L363.838 113.433L321.411 155.859L310.805 145.253Z" fill="#CE2B3F"/>
<path d="M337.675 172.123L380.101 129.696L390.708 140.303L348.281 182.729L337.675 172.123Z" fill="#CE2B3F"/>
<path d="M327.27 203.888L239.302 115.082L249.959 104.525L337.926 193.332L327.27 203.888Z" fill="#CE2B3F"/>
<rect x="337.641" y="193.628" width="60" height="15" transform="rotate(135.272 337.641 193.628)" fill="#CE2B3F"/>
<rect x="310.899" y="166.63" width="60" height="15" transform="rotate(135.272 310.899 166.63)" fill="#CE2B3F"/>
<path d="M284.157 139.633L241.53 181.858L230.974 171.201L273.601 128.976L284.157 139.633Z" fill="#CE2B3F"/>
<path d="M257.415 112.636L214.787 154.86L204.231 144.203L246.859 101.979L257.415 112.636Z" fill="#CE2B3F"/>
<rect x="312.109" y="111.536" width="100" height="15" transform="rotate(135.272 312.109 111.536)" fill="#CE2B3F"/>
<path d="M338.979 138.406L267.933 208.781L257.377 198.124L328.423 127.749L338.979 138.406Z" fill="#CE2B3F"/>
</svg>
