<svg width="651" height="591" viewBox="0 0 651 591" fill="none" xmlns="http://www.w3.org/2000/svg">
<rect x="11" y="296.422" width="200" height="200" transform="rotate(-45 11 296.422)" fill="#1A3C55"/>
<rect x="123.585" y="236.796" width="128" height="15" transform="rotate(45 123.585 236.796)" fill="#CE2B3F"/>
<rect x="112.065" y="246.513" width="60" height="15" transform="rotate(-45 112.065 246.513)" fill="#CE2B3F"/>
<rect x="138.935" y="273.383" width="60" height="15" transform="rotate(-45 138.935 273.383)" fill="#CE2B3F"/>
<path d="M165.805 300.253L208.231 257.826L218.838 268.433L176.411 310.859L165.805 300.253Z" fill="#CE2B3F"/>
<path d="M192.675 327.123L235.101 284.696L245.708 295.303L203.281 337.729L192.675 327.123Z" fill="#CE2B3F"/>
<path d="M182.27 358.888L94.3018 270.082L104.959 259.525L192.926 348.332L182.27 358.888Z" fill="#CE2B3F"/>
<rect x="192.641" y="348.628" width="60" height="15" transform="rotate(135.272 192.641 348.628)" fill="#CE2B3F"/>
<rect x="165.899" y="321.63" width="60" height="15" transform="rotate(135.272 165.899 321.63)" fill="#CE2B3F"/>
<path d="M139.157 294.633L96.5297 336.858L85.9736 326.201L128.601 283.976L139.157 294.633Z" fill="#CE2B3F"/>
<path d="M112.415 267.636L69.7874 309.86L59.2313 299.203L101.859 256.979L112.415 267.636Z" fill="#CE2B3F"/>
<rect x="167.109" y="266.536" width="100" height="15" transform="rotate(135.272 167.109 266.536)" fill="#CE2B3F"/>
<path d="M193.979 293.406L122.933 363.781L112.377 353.124L183.423 282.749L193.979 293.406Z" fill="#CE2B3F"/>
<rect x="323" y="296.422" width="200" height="200" transform="rotate(-45 323 296.422)" fill="#1A3C55"/>
<rect x="435.585" y="236.796" width="128" height="15" transform="rotate(45 435.585 236.796)" fill="#CE2B3F"/>
<rect x="424.065" y="246.513" width="60" height="15" transform="rotate(-45 424.065 246.513)" fill="#CE2B3F"/>
<rect x="450.935" y="273.383" width="60" height="15" transform="rotate(-45 450.935 273.383)" fill="#CE2B3F"/>
<path d="M477.805 300.253L520.231 257.826L530.838 268.433L488.411 310.859L477.805 300.253Z" fill="#CE2B3F"/>
<path d="M504.675 327.123L547.101 284.696L557.708 295.303L515.281 337.729L504.675 327.123Z" fill="#CE2B3F"/>
<path d="M494.27 358.888L406.302 270.082L416.959 259.525L504.927 348.332L494.27 358.888Z" fill="#CE2B3F"/>
<rect x="504.641" y="348.628" width="60" height="15" transform="rotate(135.272 504.641 348.628)" fill="#CE2B3F"/>
<rect x="477.899" y="321.63" width="60" height="15" transform="rotate(135.272 477.899 321.63)" fill="#CE2B3F"/>
<path d="M451.157 294.633L408.53 336.858L397.974 326.201L440.601 283.976L451.157 294.633Z" fill="#CE2B3F"/>
<path d="M424.415 267.636L381.787 309.86L371.231 299.203L413.859 256.979L424.415 267.636Z" fill="#CE2B3F"/>
<rect x="479.109" y="266.536" width="100" height="15" transform="rotate(135.272 479.109 266.536)" fill="#CE2B3F"/>
<path d="M505.979 293.406L434.933 363.781L424.377 353.124L495.423 282.749L505.979 293.406Z" fill="#CE2B3F"/>
<rect x="167" y="449.422" width="200" height="200" transform="rotate(-45 167 449.422)" fill="#1A3C55"/>
<rect x="279.585" y="389.796" width="128" height="15" transform="rotate(45 279.585 389.796)" fill="#CE2B3F"/>
<rect x="268.065" y="399.513" width="60" height="15" transform="rotate(-45 268.065 399.513)" fill="#CE2B3F"/>
<rect x="294.935" y="426.383" width="60" height="15" transform="rotate(-45 294.935 426.383)" fill="#CE2B3F"/>
<path d="M321.805 453.253L364.231 410.826L374.838 421.433L332.411 463.859L321.805 453.253Z" fill="#CE2B3F"/>
<path d="M348.675 480.123L391.101 437.696L401.708 448.303L359.281 490.729L348.675 480.123Z" fill="#CE2B3F"/>
<path d="M338.27 511.888L250.302 423.082L260.959 412.525L348.926 501.332L338.27 511.888Z" fill="#CE2B3F"/>
<rect x="348.641" y="501.628" width="60" height="15" transform="rotate(135.272 348.641 501.628)" fill="#CE2B3F"/>
<rect x="321.899" y="474.63" width="60" height="15" transform="rotate(135.272 321.899 474.63)" fill="#CE2B3F"/>
<path d="M295.157 447.633L252.53 489.858L241.974 479.201L284.601 436.976L295.157 447.633Z" fill="#CE2B3F"/>
<path d="M268.415 420.636L225.787 462.86L215.231 452.203L257.859 409.979L268.415 420.636Z" fill="#CE2B3F"/>
<rect x="323.109" y="419.536" width="100" height="15" transform="rotate(135.272 323.109 419.536)" fill="#CE2B3F"/>
<path d="M349.979 446.406L278.933 516.781L268.377 506.124L339.423 435.749L349.979 446.406Z" fill="#CE2B3F"/>
<rect x="167" y="141.422" width="200" height="200" transform="rotate(-45 167 141.422)" fill="#1A3C55"/>
<rect x="279.585" y="81.796" width="128" height="15" transform="rotate(45 279.585 81.796)" fill="#CE2B3F"/>
<rect x="268.065" y="91.5126" width="60" height="15" transform="rotate(-45 268.065 91.5126)" fill="#CE2B3F"/>
<rect x="294.935" y="118.383" width="60" height="15" transform="rotate(-45 294.935 118.383)" fill="#CE2B3F"/>
<path d="M321.805 145.253L364.231 102.826L374.838 113.433L332.411 155.859L321.805 145.253Z" fill="#CE2B3F"/>
<path d="M348.675 172.123L391.101 129.696L401.708 140.303L359.281 182.729L348.675 172.123Z" fill="#CE2B3F"/>
<path d="M338.27 203.888L250.302 115.082L260.959 104.525L348.926 193.332L338.27 203.888Z" fill="#CE2B3F"/>
<rect x="348.641" y="193.628" width="60" height="15" transform="rotate(135.272 348.641 193.628)" fill="#CE2B3F"/>
<rect x="321.899" y="166.63" width="60" height="15" transform="rotate(135.272 321.899 166.63)" fill="#CE2B3F"/>
<path d="M295.157 139.633L252.53 181.858L241.974 171.201L284.601 128.976L295.157 139.633Z" fill="#CE2B3F"/>
<path d="M268.415 112.636L225.787 154.86L215.231 144.203L257.859 101.979L268.415 112.636Z" fill="#CE2B3F"/>
<rect x="323.109" y="111.536" width="100" height="15" transform="rotate(135.272 323.109 111.536)" fill="#CE2B3F"/>
<path d="M349.979 138.406L278.933 208.781L268.377 198.124L339.423 127.749L349.979 138.406Z" fill="#CE2B3F"/>
<path d="M60.1562 370H17.5098V215.312H128.584V235.078H60.1562V282.881H113.008V302.539H60.1562V370ZM276.396 322.734C276.396 329.395 275.537 335.267 273.818 340.352C272.171 345.436 269.808 349.84 266.729 353.564C263.721 357.288 260.14 360.404 255.986 362.91C251.833 365.417 247.285 367.422 242.344 368.926C237.474 370.43 232.282 371.504 226.768 372.148C221.325 372.793 215.775 373.115 210.117 373.115C202.669 373.115 195.794 372.542 189.492 371.396C183.19 370.322 177.246 368.604 171.66 366.24C166.146 363.805 160.811 360.69 155.654 356.895C150.57 353.099 145.485 348.48 140.4 343.037L162.314 320.801C164.32 325.742 167.077 330.326 170.586 334.551C174.095 338.704 177.926 342.285 182.08 345.293C186.305 348.301 190.674 350.664 195.186 352.383C199.697 354.102 203.958 354.961 207.969 354.961C212.695 354.961 217.135 354.639 221.289 353.994C225.443 353.278 229.059 352.132 232.139 350.557C235.218 348.981 237.617 346.904 239.336 344.326C241.126 341.676 242.021 338.382 242.021 334.443C242.021 331.436 241.341 328.857 239.98 326.709C238.62 324.561 236.829 322.734 234.609 321.23C232.461 319.655 229.99 318.33 227.197 317.256C224.404 316.182 221.54 315.286 218.604 314.57C215.739 313.783 212.91 313.102 210.117 312.529C207.324 311.885 204.854 311.24 202.705 310.596C198.48 309.378 194.076 308.089 189.492 306.729C184.909 305.296 180.397 303.685 175.957 301.895C171.517 300.104 167.292 298.063 163.281 295.771C159.342 293.408 155.869 290.651 152.861 287.5C149.854 284.277 147.454 280.589 145.664 276.436C143.874 272.21 142.979 267.376 142.979 261.934C142.979 255.417 143.766 249.652 145.342 244.639C146.989 239.554 149.281 235.15 152.217 231.426C155.153 227.702 158.626 224.587 162.637 222.08C166.647 219.502 171.051 217.461 175.85 215.957C180.648 214.382 185.732 213.271 191.104 212.627C196.546 211.911 202.096 211.553 207.754 211.553C215.488 211.553 222.507 212.269 228.809 213.701C235.182 215.133 241.055 217.174 246.426 219.824C251.797 222.474 256.702 225.661 261.143 229.385C265.654 233.037 269.88 237.119 273.818 241.631L251.904 263.867C250.186 258.711 247.786 254.056 244.707 249.902C241.699 245.749 238.333 242.204 234.609 239.268C230.885 236.26 226.982 233.968 222.9 232.393C218.818 230.745 214.88 229.922 211.084 229.922C206.143 229.922 201.595 230.28 197.441 230.996C193.288 231.641 189.707 232.751 186.699 234.326C183.763 235.83 181.471 237.907 179.824 240.557C178.177 243.135 177.354 246.357 177.354 250.225C177.354 253.304 177.962 255.918 179.18 258.066C180.397 260.215 182.008 262.041 184.014 263.545C186.09 265.049 188.418 266.302 190.996 267.305C193.574 268.236 196.224 269.059 198.945 269.775C201.738 270.492 204.46 271.136 207.109 271.709C209.831 272.21 212.301 272.783 214.521 273.428C218.818 274.645 223.33 275.934 228.057 277.295C232.783 278.656 237.438 280.267 242.021 282.129C246.605 283.919 250.973 285.996 255.127 288.359C259.281 290.723 262.933 293.551 266.084 296.846C269.235 300.068 271.742 303.828 273.604 308.125C275.465 312.35 276.396 317.22 276.396 322.734ZM452.998 292.441C452.998 299.961 451.995 307.122 449.99 313.926C447.985 320.658 445.156 326.888 441.504 332.617C437.923 338.346 433.626 343.538 428.613 348.193C423.6 352.777 418.05 356.68 411.963 359.902C405.947 363.125 399.466 365.632 392.52 367.422C385.645 369.141 378.555 370 371.25 370H303.037V215.312H371.25C378.555 215.312 385.645 216.172 392.52 217.891C399.395 219.609 405.84 222.08 411.855 225.303C417.943 228.454 423.493 232.321 428.506 236.904C433.59 241.488 437.923 246.644 441.504 252.373C445.156 258.031 447.985 264.261 449.99 271.064C451.995 277.796 452.998 284.922 452.998 292.441ZM409.707 292.441C409.707 284.062 408.669 276.113 406.592 268.594C404.587 261.003 401.436 254.342 397.139 248.613C392.842 242.884 387.363 238.337 380.703 234.971C374.115 231.605 366.201 229.922 356.963 229.922H345.684V354.961H356.963C366.058 354.961 373.9 353.278 380.488 349.912C387.148 346.475 392.627 341.891 396.924 336.162C401.292 330.361 404.515 323.701 406.592 316.182C408.669 308.662 409.707 300.749 409.707 292.441ZM605.967 322.734C605.967 329.395 605.107 335.267 603.389 340.352C601.742 345.436 599.378 349.84 596.299 353.564C593.291 357.288 589.71 360.404 585.557 362.91C581.403 365.417 576.855 367.422 571.914 368.926C567.044 370.43 561.852 371.504 556.338 372.148C550.895 372.793 545.345 373.115 539.688 373.115C532.24 373.115 525.365 372.542 519.062 371.396C512.76 370.322 506.816 368.604 501.23 366.24C495.716 363.805 490.381 360.69 485.225 356.895C480.14 353.099 475.055 348.48 469.971 343.037L491.885 320.801C493.89 325.742 496.647 330.326 500.156 334.551C503.665 338.704 507.497 342.285 511.65 345.293C515.876 348.301 520.244 350.664 524.756 352.383C529.268 354.102 533.529 354.961 537.539 354.961C542.266 354.961 546.706 354.639 550.859 353.994C555.013 353.278 558.63 352.132 561.709 350.557C564.788 348.981 567.188 346.904 568.906 344.326C570.697 341.676 571.592 338.382 571.592 334.443C571.592 331.436 570.911 328.857 569.551 326.709C568.19 324.561 566.4 322.734 564.18 321.23C562.031 319.655 559.561 318.33 556.768 317.256C553.975 316.182 551.11 315.286 548.174 314.57C545.309 313.783 542.48 313.102 539.688 312.529C536.895 311.885 534.424 311.24 532.275 310.596C528.05 309.378 523.646 308.089 519.062 306.729C514.479 305.296 509.967 303.685 505.527 301.895C501.087 300.104 496.862 298.063 492.852 295.771C488.913 293.408 485.439 290.651 482.432 287.5C479.424 284.277 477.025 280.589 475.234 276.436C473.444 272.21 472.549 267.376 472.549 261.934C472.549 255.417 473.337 249.652 474.912 244.639C476.559 239.554 478.851 235.15 481.787 231.426C484.723 227.702 488.197 224.587 492.207 222.08C496.217 219.502 500.622 217.461 505.42 215.957C510.218 214.382 515.303 213.271 520.674 212.627C526.117 211.911 531.667 211.553 537.324 211.553C545.059 211.553 552.077 212.269 558.379 213.701C564.753 215.133 570.625 217.174 575.996 219.824C581.367 222.474 586.273 225.661 590.713 229.385C595.225 233.037 599.45 237.119 603.389 241.631L581.475 263.867C579.756 258.711 577.357 254.056 574.277 249.902C571.27 245.749 567.904 242.204 564.18 239.268C560.456 236.26 556.553 233.968 552.471 232.393C548.389 230.745 544.45 229.922 540.654 229.922C535.713 229.922 531.165 230.28 527.012 230.996C522.858 231.641 519.277 232.751 516.27 234.326C513.333 235.83 511.042 237.907 509.395 240.557C507.747 243.135 506.924 246.357 506.924 250.225C506.924 253.304 507.533 255.918 508.75 258.066C509.967 260.215 511.579 262.041 513.584 263.545C515.661 265.049 517.988 266.302 520.566 267.305C523.145 268.236 525.794 269.059 528.516 269.775C531.309 270.492 534.03 271.136 536.68 271.709C539.401 272.21 541.872 272.783 544.092 273.428C548.389 274.645 552.9 275.934 557.627 277.295C562.354 278.656 567.008 280.267 571.592 282.129C576.175 283.919 580.544 285.996 584.697 288.359C588.851 290.723 592.503 293.551 595.654 296.846C598.805 300.068 601.312 303.828 603.174 308.125C605.036 312.35 605.967 317.22 605.967 322.734Z" fill="white"/>
</svg>
