<svg viewBox="0 0 346.5 541.5" xmlns="http://www.w3.org/2000/svg"><switch><g><path d="M103.8 531.1s21.3 2 23.8 1.6 3.4-.8 3.4-.8 3.5 1.8 8.1 1.9c4.6.2 10.9-2.8 10.9-2.8s4 3 9.2 2.8 9.6.3 13.8-1.4 4.8-.6 5.4-1.4 17.2-2.8 19.9-3.5c2.7-.8 6.5-2.5 6.5-2.5s25.4-4.8 27.7-6.8 1.9-5.8 1.9-5.8 12.2-4.4 13-6.5 0-3.2 0-3.2 8.2-5.4 10.1-8.8 0-4.4 0-4.4 5.9-2.5 9.4-6.5 3.6-6.7 3.1-7.5c-.6-.8-1.9-1.3-1.9-1.3s6.3-3.4 9-8 0-7.5 0-7.5 6.7-8.6 9.4-13.2-1.1-6.7-1.1-6.7 9-4.6 10.5-12c1.5-7.5-1.7-9.7-1.7-9.7s4.6 1.3 7.1-3.6c2.5-5 4.8-12.6 3.1-15.1s-2.5-3.1-2.5-3.1 4.2.7 7.8-10.8-2.9-14-2.9-14 5.9 1.1 8-8 3.6-10.7 2.5-13.4-4.6-4.2-4.6-4.2 5.2 1.1 6.5-3.6c1.3-4.8 3.6-14.7 1.7-18-1.9-3.2-7.5-5.2-7.5-5.2s7.4 1.3 8.2-4.6 3.7-15.9 1.5-17.6-6-3.6-6-3.6 6.5-.6 6.9-7.5 2-15.9-.8-17.6-6.6-3.8-6.6-3.8 8.4.8 8.2-4.2.4-16.6 0-18c-.4-1.3-9-4.2-9-4.2s8.5 1.5 9.1-6.5-1.5-15.1-3.2-16.6-6.1-2.9-6.1-2.9 6.5 2.3 5.9-5-1.3-14.9-1.9-16.4-7.5-3.1-7.5-3.1 6.9 1.1 6.5-5.4-2.7-15.1-4-16.6-5.2-2.3-5.2-2.3 6.9-2.9 5.9-8-5.5-12-5.5-12l-2.5-1.3s2.3-1 1.1-6.1c-1.1-5.2-3.2-13.4-3.8-14.1-.6-.8-4.5-1.5-4.5-1.5s3.3-1.9 1.6-7.3-3.1-9-4-10.1c-1-1.1-4-.8-4-.8s.6-1.1.6-4-5.2-9.7-6.3-10.7.4-3.1-1.9-6.1-7.9-8.2-8.1-8.8-3.2-7.1-5.7-9.7-3.8-2.5-3.8-2.5-2.1-4-7.5-8.2-13.6-8.4-19.3-11.1-16.2-5.5-22.2-7.6c-5.9-2.1-15.7-5-25.2-6.9s-11.9-2.3-18.9-4c-7.1-1.7-17-2.3-20.2-1.5s-14.6-.8-25.7-1.1-22 1.9-25.5 4.2l-3.5 2.3s-5 2.3-5.9 3.6c-1 1.3-.6 1.5-2.9 2.6s-5.2 6-5.2 6-1.3-.6-2.1 0-6.6 7.3-6.6 7.3l-5.8 9v3.1s.2-2.5-1.7-.8-5.9 5.7-5.5 7.3c.4 1.5 1.7 3.8 1.7 3.8s-2.1-.8-3.4.8c-1.3 1.5-3.8 6.9-3.8 8.2V80s.2-1.7-1.9 0-6.1 9.2-6.1 10.1c0 1 1 4 1 4s-2.3.8-3.8 2.9-2.1 7.6-2.1 7.6l1.5 3.1s-2.9.2-4 2.1-2.9 10.1-2.9 10.1l1.5 5-3.6-.4s-4.2 10.1-4.4 10.9 1.8 3.8 1.8 3.8-2.1 1.7-3.1 4.4-2.5 8.4-2.5 8.4 1.9 1.5 2.3 3.1-3.2 2.4-3.2 2.4-2.9 9.6-2.7 10.7 1.3 6 1.3 6-1.9 0-2.5 1.3-3.4 10.7-3.4 11.3 2.7 2.5 2.7 2.5-1.3 3.4-2.7 4.9c-1.3 1.5-2.5 11.7-2.1 12.6.4 1 1.9 1.5 1.9 1.5s-3.1 2.5-3.8 4.2-1.8 10.7-1.8 11.3 4 5.2 4 5.2-2.7-1.1-4 1.7c-1.3 2.9 0 10.1 0 11 0 1 1.8 4.2 1.8 4.2s-2.9 1.1-3.5 4.2 0 9.4.9 10.7c.8 1.3.3 2.7.9 3.2.5.6-2.2 1.1-2 3s-.7 10.7-.8 13 1.1 4.4 1.1 4.4-1 .4-1.1 2.7c-.2 2.3-.3 9.5.5 11.5.8 1.9 1.2 2.1.6 3.2s-1.3 1-2.1 3.8c-.8 2.9.8 9.9 1.1 11.5.3 1.5.5 2.1 1.1 2.3s-1.6 2.1-2.3 6.3.7 12.2 1.7 12.8.7 1.5 0 2.5-.7 11.3-.4 13.2 3 2.5 3 2.5-3.1 1.7-3 4 1.9 12.4 1.9 12.4l2.6 1.3s-2.5-1-1.7 7.1c.7 8 1.7 10.3 1.7 10.3l2.1-1s-3.6 5.7-2.3 8 3.6 10.7 3.6 10.7l1.9-2.1-1.1 4.8s1.9 8.6 1.9 10.3 1.1 2.7 1.1 2.7-.2.5-1.1 3.4c-1 2.9 1.9 11.3 2.1 11.9s4.8 12 4.8 12v2.1s1.1 9.6 2.5 9.9 3.6 2.8 3.6 2.8-2.1-1.2-1.7 1.8c.4 3.1 4.4 11.7 4.4 11.7l1.5-1.2-.2 3.1 3.8 8 1.7 1.9 5.9 9.2 1.7.2 1 4.8 5.2 5.7 1.5-1 1 3.8 5.7 5 5.9 5.2s8.2 6.3 9.4 5.4c1.1-.8 9.6.5 13.5 0 3.3-.3 5.7.2 5.7.2z" fill="#030303"/><linearGradient id="a" x1="-295.85" x2="-370.41" y1="545.68" y2="52.468" gradientTransform="matrix(-1 0 0 1 -75.433 0)" gradientUnits="userSpaceOnUse"><stop stop-color="#fff" offset="0"/><stop stop-color="#4E4F51" offset=".385"/><stop stop-color="#DBDCDD" offset=".718"/><stop stop-color="#4E4F51" offset=".904"/><stop stop-color="#383738" offset=".99"/></linearGradient><path d="M206.7 523.6s16.3-3.7 18.4-4.9c2-1.1 8.6-1.7 7.5-4s-3.4-2.3-3.4-2.3 1.7-1.2 3.4-1.7c.5-.2 1-.3 1.5-.3 2 0 10.9-4.3 11.8-5.7s-4 2-4.9 0 2.5-2 5-3.2 8.2-5.2 9.4-7.5l1.1-2.3s-7.2 2-6.3 0 1.7-2 6.3-3.4 13.8-11.2 10.9-11.5-7.7 3.7-6.3 0 2-1.1 5.2-3.7 6.3-1.4 8.9-6.9c2.6-5.4.6-5.7 0-6s-7.7 5.2-4.6 0 5.2-1.7 8.6-6 5.7-7.7 6-10 2-3.7-1.4-3.2-8.6 4.3-5.2-.1c3.4-4.5 1.9-2.5 7.3-5.3 5.3-2.9 8.5-5.7 7.9-11.2-.6-5.4 0-7.2-2.6-5.7-2.6 1.4-8 3.3-3.4-.5s8.9-1.8 10.3-4.1 5.4-12.9 3.2-15.8c-2.3-2.9-4-2-3.2-4.3.9-2.3 4.3 1.4 6-2.6s5.2-14.3 3.4-16.2c-1.7-1.9-4-6.2-4-6.2s6.3-.6 7.5-3.2c1.1-2.6 5.2-15.8 2.6-16.9s-6-5.7-6-5.7 8.6 1.1 9.5-2.9 4-14.9 0-16.9-8.3-5.2-4.9-7.3 5.7 1 6.9-4.7 2.6-11.9.9-13.8-8.6-5.1-6.3-7.4 5.3 1.4 7.1-2.3 3.4-16.3 0-18.2-10-6.5-5.7-7.9 7.6.6 7.7-2.6 1.2-16.9-1.3-17.5c-2.6-.6-10-3.2-7.5-6.6 2.6-3.4 10.5 1.7 9.1-5.4-1.4-7.2 1.8-12.6-4.8-15.5s-9.5-6.3-6-6.6c3.4-.3 8 4.6 7.2-2.9-.9-7.5 0-13.5-2.9-14.6s-8.3-3.4-6.6-5.7 8 2 7.2-3.4c-.9-5.4-.3-12.3-4.6-15.2s-11.8-3.7-6.6-6.3 8.6-.9 7.2-5.4c-1.4-4.6-2.9-9.7-6-11.2-3.2-1.4-8.3-3.4-6.6-6s7.7 6.3 6.3 0-2-14.1-4.9-14.9c-2.9-.9-8-4.3-8-6s6.6 4.3 6 0-2.6-10.9-4.6-12.3-5.4 1.1-4.3-2.3 3.7-2 .3-7.2-6.9-6.3-6.9-8.9 3.7.3 0-4-5.2-7.5-6.6-8.3-2.3-.9-2.3-3.2 0-2.9-3.2-6-6-3.4-6-3.4 3-.9-1.2-3.4c-4.2-2.6-9.1-9.5-14.8-11.8S233.2 38 232 37.5c-1.1-.6 9.7 9 14.1 10.5 4.3 1.5 3.4 1.2 3.2 3.8-.3 2.6 6.6 6.3 9.7 8.3 3.2 2-1.4 3.2-1.4 3.2s5.9 5.7 7.7 9.5c1.8 3.7 5.8 11.8 9 15.5s-.3 1.7 1.7 6.6 7.5 8.6 9.5 9.5 3.7 3.2 3.7 3.2-3.2-.6-4.9-1.7-1.7 1.4-1.4 4.3 5.2 12.6 6.9 13.5 7.2 1.1 6.6 3.2c-.6 2-3.2-1.4-4.9-2.3s-2.6-1.4-2.3 2.9 2.6 13.8 6 17.2 8.9 3.7 7.7 5.2-6-1.7-7.5-2.6c-1.4-.9.3 2.3-.3 6s-.9 8.6 2 12.3 9.5 3.2 10 6.3c.6 3.2-.6 2.9-2.9.6s-4.6-2.3-4.6-2.3.6 3.7-.6 8-1.1 6.6 1.4 10c2.6 3.4 8.9 6 9.2 8.6s-.6 1.4-3.4 0c-2.9-1.4-2.9-2.9-2.9.6 0 3.4-4 7.5-1.7 12.3 2.3 4.9 2.3 9.2 5.4 10.6 3.2 1.4 6 4.9 4.6 4.6s-4.6-5.4-5.4-2.6c-.9 2.9-4.6 13.5-2.3 18.6s9.2 7.5 9.7 9.5c.6 2-6-.9-6.9-.9s-3.4 9.5-3.4 11.2.9 13.8 3.2 15.2 6.3 2.9 6.3 2.9-5.4-2.9-6.9 0c-1.4 2.9-6.3 15-3.7 19.1s9.2 8.7 9.2 8.7-5.2-5.5-6.6-1.8c-1.4 3.8-3.2 8-4.6 11.6s-2.3 5.3.3 10.5 7.5 5.2 7.5 5.2-5.4-3.7-6.9 1.2c-1.4 4.9-5.4 8-5.7 12.6s-.9 7.7 1.7 10.3 5.7 3.7 5.7 3.7-4-6-6.3 1.1-4.9 4.3-5.7 9.5c-.9 5.2-3.4 9.7-1.1 11.2 2.3 1.4 7.5 2.6 7.5 2.6s-3.7-2.4-6.3 2.1-3.7 6.8-5.4 9.7-2.3 0-2.3 5.2 2.6 9.7-1.4 14.1-7.5 7.2-6.6 11.5 4 4 5.4 3.7 2-2.9 1.4-.3-3.2 3.2-4.9 4.9-8.3 5.7-9.7 9.2c-1.4 3.4-1.4 7.7.9 6.9s5.4.6 5.4.6-1.1.6-5.4 3.2-10.3 9.7-10.3 9.7-1.4 4 .9 4 4.9 1.7 4.9 1.7-3.2-1.1-7.5 2.3-9.7 7.7-8.6 9.5 6.3 2 6.3 2-2.3-.3-7.7 4.3-8 2.9-8.9 6.6-.9 5.4 2.9 4-.9.6-4.9 2.9-10.3 6.6-8.3 7.2-2 2-4.6 3.4-8 4.9-4.9 5.2c3.2.3 2 1.1-1.7 2.3-4.4.5-7.2 1.4-9.2 3.4z" fill="url(#a)"/><linearGradient id="b" x1="-274.14" x2="-348.7" y1="542.4" y2="49.187" gradientTransform="matrix(-1 0 0 1 -75.433 0)" gradientUnits="userSpaceOnUse"><stop stop-color="#fff" offset="0"/><stop stop-color="#4E4F51" offset=".385"/><stop stop-color="#DBDCDD" offset=".718"/><stop stop-color="#4E4F51" offset=".904"/><stop stop-color="#383738" offset=".99"/></linearGradient><path d="M211.2 31.2s7.5 4 8.9 6 7.2 3.5 8 4.6c.9 1.1 2.9 6.6 5.2 8s5.4 3.4 4.6 5.7c-.9 2.3-.9 4 2.9 6 3.7 2 7.2 4.3 6.9 8s-2 3.4 1.7 6.6 4.3 6 4.9 9.7 1.4 6.9 4.9 10.9c3.4 4 2 4.6 2.9 9.7.9 5.2 10.9 14.1 10.9 14.1s0-5.2-2 1.4-2.9 11.2 2 14.1 7.7 8.3 7.7 8.3-6-7.7-6.3-2-3.7 9.2-.6 12.6c3.2 3.4 7.7 9.2 10 11.5s-2 2.6-2.3 1.4c-.3-1.1-1.4-3.4-2.3-1.4s-.9 5.4-1.4 9.7c-.6 4.3 1.1 12 4 13.2 2.9 1.1 6 4.9 5.2 4.9s-2.3-5.2-4.3-1.4-6.3 10.6-2 16.1c4.3 5.4 1.1 7.2 4.6 8.9 3.4 1.7 4.6 3.4 4.6 3.4s-2.9-2.3-4.6 0-4.3 9.2-3.4 12.9 1.1 7.7 5.7 10.9 2.3 4 2.3 4-3.4-9.2-5.7-1.7-.3 4.9-1.7 10c-1.4 5.2-2.3 8.4.3 12.2s7.7 7 7.7 7-4.6-1.4-5.7 0-.6 3.7-2.6 8.3-2.3 5.4-.9 9.7.9 6 2.6 6.9 4.9 1.6 3.4 2.8c-1.4 1.2-3.4-1.2-4.6 0-1.1 1.2-1.7 3.8-2.9 6.9-1.1 3.1-3.4 9.7-2.6 12.9.9 3.2 0 3.4 4 4.9 4 1.4 5.2 3 3.2 3.2s-5.7-2.1-6-.6 3.4 1.2-.3 6.6-4.3 8.3-4 12.9.9 8.3-1.4 12.6-4.6 8.9-4.6 12.6 2 8 .3 11.8c-1.7 3.7-6.3 8.3-7.2 11.8-.9 3.4-.9 7.5 1.7 8 2.6.6 3.7 0 3.7 0s.9-1.7-4.6 4.6c-5.4 6.3-10 8.3-9.7 12.9s1.7 5.7 3.7 5.7 2.9 2.3 2.9 2.3-3.2 1.4-6.6 3.7-6.9 6-6.9 9.5c0 3.4-.3 5.7 1.7 5.7h3.7s-8 4.9-11.2 8.3-3.4 4-4.6 2-1.1-2-1.1-2 0 8 1.7 9.5c1.7 1.4 7.7.6 6.3 2.3s-8 3.4-10.6 5.4 0 2-2.6 2-3.2-1.4-3.2-1.4-2.6 2.9-.9 4.6 3.4 4.6 4.3 4.9 0 1.7-4.3 3.2c-4.3 1.4-6.9 3.4-6.9 3.4l-2-2.3s-3.2.9-1.7 4.9 4 4.6 4 4.6-.3 0-4.3 2.6-7.2 2.6-7.2 2.6-4.9 4.6-1.7 5.4c3.2.9-.3.9-3.7 2.6s-4 5.2-2 5.4-3.2 2.3-6.9 3.2-6.3 1.7-7.5 2.3c-1.1.6-3.7 3.2-3.7 3.2s20.1-4 21.5-5.4 4.9-1.4 6-3.7 0-3.4.9-4.6c.9-1.1 3.4.9 6.3-2.3s.9-1.7 2-5.2 3.4-.6 6.6-4 10.9-6.9 7.2-8.6.3 1.1 4.2-3.7c3.9-4.9 7.3-6.6 5.6-9.2s-2.9-.6-1.7-2.6 6.6.9 9.5-7.7-1.7-9.2-1.7-9.2 8.3-3.4 10.3-9.5c2-6-2.3-8.3-2-11.2s15.2-3.4 14.3-13.2c-.9-9.7.3-8.9 3.2-16.1s1.7-10.6 1.7-13.5-4 1.1 0-2.9 8.9-13.5 7.5-19.2-2.3-4.3.3-8 11.5-8.6 7.7-14.1c-3.7-5.4-4.6-7.5-3.7-9.5s8.3-14.6 6-18.6-3.2-11.1-3.2-11.1 6.6-5 6.6-9-2-9.5-2.3-12.3-1.1-3.1.6-6.3 6.6-11.2 4-16.1-4.6-7.5-4.3-9.5 8.4-10.9 5-16.3c-3.3-5.4-7.9-11.2-5.9-14.9s6.9-6.9 5.2-10.9-6.3-12.9-6.6-14.3 5.2-6.6 4.6-10.3-7.2-17.1-7.2-17.1h-2.6s8-2.4 6-8.7-4.3-9.5-6-11.8-4-3.4-4-3.4 6-2.9 6-6.6-3.2-9.5-6-12.9c-2.9-3.4-2.9 0-2.9-3.4s3.7-6.9.6-10.6c-3.2-3.7-6-8.9-6-10s2.9-6.6-.9-11.2c-3.7-4.6-5.7-1.4-5.7-8s1.4-6.6-1.7-9.5c-3.2-2.9-5.4-4.3-6-6.6s-.6-5.4-1.4-6.6-7.2-5.4-7.5-7.5c-.3-2 1.7-2.3-1.4-4.9s-6-3.7-6.9-4.9c-.9-1.1-1.8-1.4-2.2-4.7s-4.1-3.9-7.2-6.5c-3.2-2.6-2.6-2.3-5.7-4-3.3-1.5-16.5-5.8-16.5-5.8z" fill="url(#b)"/><linearGradient id="c" x1="-250.36" x2="-324.92" y1="538.8" y2="45.592" gradientTransform="matrix(-1 0 0 1 -75.433 0)" gradientUnits="userSpaceOnUse"><stop stop-color="#fff" offset="0"/><stop stop-color="#4E4F51" offset=".385"/><stop stop-color="#DBDCDD" offset=".718"/><stop stop-color="#4E4F51" offset=".904"/><stop stop-color="#383738" offset=".99"/></linearGradient><path d="M188.9 27.4s5.7.1 8 3.8 2 5.1 6.3 6 5.2 4 4.9 5.2c-.3 1.1 4.3 4.7 6.6 5.4s-4 5 2 8.4 8.3 2.6 8 6.6-2 8.3 2 10 5.7 7.7 5.4 11.8c-.3 4 2.9 6 6.3 9.2s-1.1 5.4 0 10.3 9.5 9.2 8.3 14.9c-1.1 5.7-4.4 5.4.1 9.7s6.2 8 5.1 14.1c-1.1 6-6.2 12 .3 17.5 6.5 5.4 5.4 4.9 3.4 11.5s-2.9 9.2 1.6 15.2-1.3 10.3 0 16.2 4.5 7.3 3.9 11.9-4.9 8.6-3.7 14.3 5.3 9.8 3.8 16.1-8.4 12-4.1 17.5c4.3 5.4 7.7 9.7 4.4 17.5s-6.1 6.6-4.4 15.5-.6 12.9-2.9 17.2-1.7 8.3 1.1 14.6c2.9 6.3-4 9.2-4.3 17.2s3.7 10 .6 16.9c-3.2 6.9-6.3 2.1-6.6 9.9s4.9 10.4.9 16.2c-4 5.7-6 4-7.2 11.5s5.7 4.6-.3 12c-6 7.5-8.3 10.6-8.3 14.1s3.7 8.6.9 12.3c-2.9 3.7-6.9 7.2-7.7 7.2h-4.9s5.4 4.6 4.9 8c-.6 3.4-6.3 10-8.3 10.3s-4.6-1.4-4.6-1.4 2.9 3.2 3.4 7.7c.6 4.6.6 4.9-2.3 6.9s-7.5 5.7-7.5 5.7l-2.9-3.7s7.2 6 4 10.6-8.3 5.7-9.2 6.9c-.9 1.1-4-1.4-4-1.4s4 4 2.6 7.2-2.3 5.4-5.7 6.6-7.7 0-7.7 0 6 2.9 4.3 5.7c-1.7 2.9-3.7 1.7-6.6 2.9-2.9 1.1-4-.6-4.6 1.7s0 5.2-3.7 6.3-6.9.6-8.9 2.3-6.6 4.3-6.6 4.3 12.9 2.3 16.6 0 5.7-2 6.9-4.6 2-2.9 4.6-3.4c2.6-.6 5.2-.9 5.7-2.9s-1.1-2.6 3.4-3.7c4.6-1.1 7.2-2.3 7.2-4.9s-2.6-2.6 1.1-4.3 8-4 8.3-7.7 6.9-5.4 9.2-11.2c2.3-5.7-3.4-6.3 2.6-9.7s6.3-3.7 8-8.3-1.4-7.5 3.7-12.3c5.2-4.9 4.3-8.6 4.9-12s2.3-6.3 5.7-10 4.3-3.7 3.4-9.7 1.4-8.9 4.6-12.6 3.2-4.6 2-9.5c-1.1-4.9-2-4.9 2.3-12s3.7-11.5 2.9-14.6 0-9.2 4.6-15.5 3-7.7 1.9-12.3-.5-8.3 3.2-15.2 0-4.3 0-11.8 0-4.1 3.4-12.8-.9-16.2 0-20.5 6.3-8.3 4.3-14.1c-2-5.7-6.9-10.9-2.9-18.6s6.9-7.5 3.3-13.5-6.5-7.7-3.6-14.9 4.3-8.3 2.3-13.2-6.3-2.4-3.4-12.5 4.3-9.6-.3-16.5-6-7.5-3.7-13.5 4-6.3.9-11.2-7.5-4.3-5.4-12 1.7-11.2-1.1-16.1c-2.9-4.9-2.6-4.3-2-9.7s.9-8.3-2.9-10.9c-3.7-2.6-4.9-6-4-10.6s0-3.7-3.4-8.3-4-6-4-11.2-1.9-5.2-4.8-7.7-2.6-5.4-2.6-9.2c0-3.7-5.4-5.4-7.5-8-2-2.6-1.1-2.3-2-5.7s-7.7-1.9-7.7-4.7 4.6-3.1-.3-6.5-8.3-1.2-8.9-4 1.1-4.9-2.3-6c-3.4-1.5-13.4-4.6-20.3-4.2z" fill="url(#c)"/><linearGradient id="d" x1="-223.97" x2="-298.53" y1="534.82" y2="41.602" gradientTransform="matrix(-1 0 0 1 -75.433 0)" gradientUnits="userSpaceOnUse"><stop stop-color="#fff" offset="0"/><stop stop-color="#4E4F51" offset=".385"/><stop stop-color="#DBDCDD" offset=".718"/><stop stop-color="#4E4F51" offset=".904"/><stop stop-color="#383738" offset=".99"/></linearGradient><path d="M179.7 24.6s7.2 4.6 9.5 8.3 6.9 4 8.3 6 .3 5.4 2.3 6.6 6.3-2.2 6.9 2.2-.9 9 1.7 9.8c2.6.9 9.8 2.9 8.1 6.6-1.8 3.7-2.6 4.9.3 7.5s5.4 3.4 5.4 6.9-1.7 5.7 0 7.7 8.6 3.4 7.5 10.6-2.9 10 .1 12.3 9.3 5.7 7 11.5c-2.3 5.7-3 7.2.5 10.3s4.5 5.4 3.3 10.6-5.5 7.5-5.5 7.5 3.3-.6 5.5 4 7.7 4.9 5.4 11.5-1.4 8.6-2.3 9.2-6-1.1-5.7 0 3.2 3.2 5.2 4c2 .9 9.5 7.2 7.2 12-2.3 4.9-2.3 9.6-3.4 9.8s-5.2 0-5.2 0 4.3-4.1 5.4 3.5 5.2 8.5 3.6 13.4-1.9 9.7-3.3 10.6-6.8 1.4-6.8 1.4 6.5 1.4 8 5.7 5.3 10.6 2.5 14.6-.8 6.3-4.2 7.5c-3.4 1.1-6.3 1.7-6.3 1.7s7.1-1.7 7.7 2.3 5 11.2 3.8 13.8-2.4 6.5-3.8 8.1-7.7 3.7-7.7 3.7 5.1-3.4 5.7 1.4c.6 4.9 2.6 8.8 3.4 13.1s-4 9.9-4 9.9l-3.4 5.8-5.7-1.8s8 3.4 7.7 9.7 2.9 7.7.9 10.9-6.3 4.6-6 8.6 4 8.9 2.9 13.2-6.3 15.3-7.2 15.1-5.4 0-5.4 0 5.2.7 6 7.8c.9 7.2 2.9 6.3-2.9 10.6-5.7 4.3-11.5 6.9-11.5 6.9s8.9-1.7 8.9 5.4.3 11.8-4.3 14.3-11.2 5.2-11.2 5.2 6.9-2 7.7 4c.9 6-2.8 12-5.7 13.5-2.9 1.4-8.1 2.9-8.1 2.9s5.2-1.7 5.4 3.7c.3 5.4.3 8.9-3.2 12-3.4 3.2.3 4-4 4h-6s9.2-.3 6 5.7-2 9.7-8.9 10.6l-6.9.9s8 .9 6 5.2-2.3 6.3-6.3 8.3-9.5 3.2-9.5 3.2 4-1.1 4 2.9-1.7 8-7.7 9.2l-6 1.1s8.6-3.2 5.7 3.2c-2.9 6.3-4.6 4.6-8 5.2s-8.6 0-8.6 0 9.7 0 6.6 3.4c-3.2 3.4-10 4.9-12 4.9h-2s6.9 2.3 3.7 3.2-5.2 1.1-7.7 1.4-4.9 0-4.9 0-4.6 2.9-5.4 2.2c-.9-.7-4.3-3.6-4.3-3.6l10.9-1.4s-6.6.3-2.9-1.7 6.6-1.4 10.6-2.3l4-.9s-5.4-1.1-4.3-3.4 10.9-4.3 12.3-4.9-2.6-.3-1.7-2.9 8.3-7.5 11.8-8.3c3.4-.9-2-2.9-2-4.9s13.2-8 13.2-8.9-10 4.9-5.2-4c4.9-8.9 3.7-10 9.2-10.9 5.4-.9 5.2 1.1 5.4-.9.3-2-8.9 3.4-6.9-4s6.6-12.3 9.7-13.2 4.6-3.2 4.6-3.2-4.3.9-4.3-3.2-1.4-5.4.6-7.5 6.3-8.9 9.5-8.6 3.7-2.3 3.7-2.3-2.9.6-4.3-.9c-1.4-1.4-3.2-5.4-3.2-6.6s5.4-12.9 9.7-13.8l4.3-.9s-3.2 3.4-5.2-2.9-2.6-8.6-.6-11.2 3.7-6.9 5.7-7.7 4.6-1.3 5.2-1.9-3.7-1.2-4.6-5c-.9-3.7-3.2-10.3 0-13.5s6.3-7.5 7.5-8c1.1-.6 4-1.4 4-1.4s-5.7-4-7.2-8.3c-1.4-4.3-.3-6.9 3.2-11.5 3.4-4.6 4.3-6 6-6.6s3.4-2 3.4-2-4.6 2-6-2.6-4.9-11.9-.9-16.8c4-5 4.9-7.5 4.9-7.5s5.2-2.7 4.3-2.3c-.9.3-5.4 4.3-8-5.7s2.9-10 4.6-16l1.7-6s7.5 3.4 4.6.3c-2.9-3.2-8.9-5.2-9.2-9.2s0-8 2.9-13.5l2.9-5.4s3.7 2.9 3.4.6.6.9-4.6-4.6c-5.2-5.4-7.5-7.7-6.3-11.5 1.1-3.7 2-8 4.6-11.2l2.6-3.2s4.1 3.2 2.3.6-6.4-1.7-7.5-6-3.7-7.1-2.9-10c.9-2.9 1.1-6.4 2-8.1s1.7-3.4 1.7-3.4 6 2.3 4.9.3-4-2.3-6.6-5.2-5.4-7.2-4.6-11.2 4.3-9.5 4.6-10.6 2.9 2.9 2.9 1.7-3.4-1.4-6.6-6.3-4.6-10.6-3.2-12.6 2.3-6.7 2.3-6.7 5.7 1.9 4 0-4.3.4-6.9-4.5-5.2-6-4.6-9.7 1.7-8.6 1.7-8.6 4.6.9 4-.3-4.6-2.3-6.9-4.9-5.4-3.7-5.2-6.3c.3-2.6 1.4-8.9 1.4-8.9s9.5 1.4 5.4-.3c-4-1.7-5.4.3-8.3-3.7s-7.2-5.7-5.7-8.6 2.6-6 2.6-6 6 3.2 4.3 1.4c-1.7-1.7-7.5-1.7-9.2-3.7s-7.5-6.6-5.4-8.9c2-2.3 6-2.9 2.6-4.6s-6-4.6-6.9-5.2-1.7-1.7-2.6-4.9-2.9-4.9-4.3-5.7c-1.4-.9-7.5-4-6.6-5.4s-4-4.6-4-4.6l-3.2-5.4s-5.4.6-6.6-1.3c-1.1-1.9-7.7-7.2-7.7-7.2s16.4 4.3 20.4 4.6z" fill="url(#d)"/><linearGradient id="e" x1="-192.33" x2="-266.89" y1="530.03" y2="36.82" gradientTransform="matrix(-1 0 0 1 -75.433 0)" gradientUnits="userSpaceOnUse"><stop stop-color="#fff" offset="0"/><stop stop-color="#4E4F51" offset=".385"/><stop stop-color="#DBDCDD" offset=".718"/><stop stop-color="#4E4F51" offset=".904"/><stop stop-color="#383738" offset=".99"/></linearGradient><path d="M153 22.3s7.5 4.4 8.6 5 5.2 1.8 5.2 1.8-.6 4 0 4.9 6.3 3.1 6.6 3.1-1.1 4.3 3.2 6.3 8 6.3 8 8.6-.6 1.7 4.6 6-.6 8 2 10.9 12.3 2 9.7 8-4.6 7.7-3.4 8.6c1.1.9 9.2 5.4 9.2 10.6s-1.4 8.3-1.4 8.3 9.5 8.3 8 12.3c-1.4 4-6 7.2-3.2 10.3 2.9 3.2 9.5 6.6 8 10.2s-3.7 10.2-3.7 10.2h-7.7s6.3-2.3 8.3 2.3 9.7 11.2 7.7 13.5-4.9 9.5-4.9 9.5h-5.7s7.7.9 8.3 4.3 5.7 8.6 4.3 12.9-3.7 9.5-3.7 9.5h-9.2s9.5-.1 10 1.7 3.4 10 4.6 11.8c1.1 1.7-2 8.9-3.7 11.2s-7.5 3.4-7.5 3.4 8.6-.9 8.6 1.4-1.7 2.9.9 7.2 1.1 10.9-.6 14.1-11.2 7.5-11.2 7.5 6.6-5.7 8.9 0 5.4 8.6 4.8 14.6-1.4 7.9-4.5 9.8c-3.2 1.9-10.3 3.1-10.3 3.1s9.7-3.4 9.7 0 3.7 8.7 3.4 12.3c-.3 3.5-.9 8.7-2.9 10.7s-2.5 6-5.7 5.7-5.8 0-5.8 0 9.2-.6 9.5 3.4 2 12.9 1.1 14.3-8.3 10.6-8.3 10.6h-10.6s11.2-.9 12.9 3.7 3.2 10.6 1.2 14.1c-2 3.4-5.5 6.9-5.5 6.9l-8.6 3.4s7.2-4 8 0c.9 4 4.6 13.5.3 16.9s-3.7 6-6.3 8-9.5 0-9.5 0 8.6-1.4 9.2 3.4c.6 4.9 2.3 11.2-.6 14.6s-6.9 5.7-10.2 6.3-8.5 0-8.5 0 12.6-.3 13.2 3.4.9 11.5-2 12.9-6 4-8 4.3-6.9 0-6.9 0 4.3 2.6 7.2 3.7 1.5 7.7 1.6 8.9c.1 1.1-3.3 6-6.7 7.2s-8.6 1.4-8.6 1.4 5.4.6 6.6 3.4 2.3 6.3 2.3 7.2-4.3 3.7-7.5 5.2c-3.2 1.4-8.6 1.7-8.6 1.7s5.7 2.3 5.4 6.3-.9 3.2-4.6 4.9-10.3 3.2-10.3 3.2 6.6.9 6 4-1.1 5.2-4 7.2-4.9 2.3-4.9 2.3h-6.9s9.2 1.7 6.9 4.3-1.4 4.6-6.9 4.9c-5.4.3-10.6 0-10.6 0s11.5.6 6.6 4.9-8.3 2-10.9 2.6l-2.6.6s5.4.9 3.7 3.2-8.9 1.7-8.9 1.7l-2.9.1s4.9 1.7 1.4 1.9-4.9-.3-7.5 0-10.9-2-10.9-2l3.7-2.9h14.1l-9.2-2.6 5.2-3.4H133l-10-2.3 6.3-5.4 12.6-.6-10-3.2 5.7-6.9 14.1-.9-11.2-3.4 6.9-8.6 13.8-1.4-9.7-3.7 3.7-11.2s14.3-.9 15.2-1.1c.9-.3-.9-3.2-5.7-3.4-4.9-.3-6.3-1.1-6.3-1.1s2.9-5.4 3.4-7.7 1.7-4.3 1.7-4.3 13.2-1.1 14.6-1.7-.3-1.7-4.9-3.2c-4.6-1.4-6.9-2.6-6.9-2.6l4.6-13.2s12-.6 14.3-1.4c2.3-.9.3-3.4-5.4-4.6s-5.7-1.1-5.7-1.1l4.6-16.3s15.2.3 14.8-2-3.6-3.7-7.6-4-6-2-6-2l4.3-17.8s13.2.6 14.3-.6.3-2.6-3.7-3.7-9.2-2.6-9.2-2.6l4-18.6s14.9-.9 14.9-2.3-4.3-3.2-7.2-3.6-6-1.6-6-1.6l2.1-20.1s13.9-.9 15.1-2.9-6.3-3.2-7.2-3.4c-.9-.3-5.2-1.7-5.2-1.7l-.3-20.9s13.2.3 15.5-.9c2.3-1.1.3-3.6-4.6-4.4s-11.8-2.8-11.8-2.8l.9-20.1s16.3.6 17.2-1.4-5.7-6.7-10.9-6.5l-5.2.2.6-19.8 16.9-4.3-14.9-4v-19.5s12.9-3.7 13.8-4.9c.9-1.1-9.7-3.4-11.2-3.4h-1.4l-1.4-18.6 14.9-4.6-15.8-3.2-2-20.4 13.2-3.7-12.6-3.2-3.6-18.1 13.3-1.8-13.3-3.6-5-16.3 14.1-4-15.8-1.7-3.2-14.9 12-2.9-14.3-1.7-4.3-13.5 12.9-4.3-15.5-.6-5.2-10.6 13.8-3.2-16.6-.9-4.3-8.9 10.9-2.7h-13.8l-5.7-8.2 8.9-2.3H152l-6.9-6 7.7-2.6-10 2.6-5.7-3.8v-5l-5.4 2.6-8.3-2.6-3.7-2.2c-.2 0 26.1-2.1 33.3 2.1z" fill="url(#e)"/><linearGradient id="f" x1="-163.65" x2="-255.41" y1="543.24" y2="23.649" gradientTransform="matrix(-1 0 0 1 -75.433 0)" gradientUnits="userSpaceOnUse"><stop stop-color="#B2B4B7" offset="0"/><stop stop-color="#4E4F51" offset=".385"/><stop stop-color="#4D4D4F" offset=".99"/></linearGradient><path d="M111.2 31.2v-9.5l6.6-1.6-1.7 9 1.7.3 1.7-9.3 7.2 3.2-1.4 7.8 3.4-7.2 5.7-.5-1.7 10.8 4.3-7 5.7 3.8-2.6 11.5L145 31l6.9 6-4.6 12.1 6-9.7 5.7 8.2-4 12.7 6.9-10 4.3 8.9-3.5 13.5 6.3-9.5 5.2 10.6-3.2 9.7 5.7-4.9 4.3 13.5-4.9 10.3 7.2-5.7 3.2 14.9-5.4 10 7.2-4.3 5 16.3-8.5 8.6 8.5-3.2 3.6 18.1-7.2 6 6.6.9 2 20.4-6.9 7.3 7.8.5 1.4 18.6-7.3 4.6 6.2 3.7v19.5l-6.2 5.2 4.2 3.2-.6 19.8-5.4 4.3 4.3 3.4-.9 20.1-4.9 2.8 5.7 5.2.3 20.9-7.2 1.4 4.4 6.6-2.1 20.1h-6.3l4.6 7.5-4 18.6h-6l4.6 6.9-4.3 17.8-6.6-2.3 5.4 10.3-4.6 16.3-6-4 2.9 11.2-4.6 13.2-6-4 3.2 11.5-5.2 12-4.9-5.7 1.7 11.5-3.7 11.2-6.3-6.9 2.3 12-6.9 8.6-4-6.3 1.1 10.6-5.7 6.9-4.6-7.7 2 11.5-6.3 5.4-4-8.6.6 10.9-5.2 3.4-4.6-8-.3 10.6-3.7 2.9-4-10.6V529h-7.2l-1.7-9.2v9.2h-5.7l-2.3-10.6-1.7 10.6-5.4-4v-8.6s-.8-2.6 7.2-1.7 23.5 3.4 33.2-7.7 24.4-24.1 38.7-55.6 18.6-63.1 20.6-68.2 9.5-40.4 10-53 6.6-84.6 5.9-104.4-3-58.5-7.3-76.8c-4.3-18.4-20.4-82-34.1-98.4-13.8-16.3-30.4-18.9-36.4-19.2-6.1-.5-4.3-.2-4.3-.2z" fill="url(#f)"/><linearGradient id="g" x1="-151.33" x2="-102.86" y1="480.99" y2="480.99" gradientTransform="matrix(-1 0 0 1 -75.433 0)" gradientUnits="userSpaceOnUse"><stop stop-color="#B2B4B7" offset="0"/><stop stop-color="#4E4F51" offset=".385"/><stop stop-color="#4D4D4F" offset=".99"/></linearGradient><path d="M75.9 513.8l-1.8 9.7-4.2-4.9v-8.9l-2-2V518l-4.9-4.9v-10.6l-2.9 7.7-4.6-6.3v-8l-2 4.6-5.9-8 3-5.7-5 2.6-3.3-7.5L44 475l-4 4.3-3.6-10 2.5-6.3-3.9 2.3-3.2-9.7L35 451h-4.4l-3.2-10.9 3.2-1.7s11.2 33.3 17.1 42.6 21.6 28.8 28.2 32.8z" fill="url(#g)"/><linearGradient id="h" x1="-387.88" x2="-112.15" y1="458.33" y2="215.35" gradientTransform="matrix(-1 0 0 1 -75.433 0)" gradientUnits="userSpaceOnUse"><stop stop-color="#737477" offset="0"/><stop stop-color="#454547" offset=".794"/><stop stop-color="#383738" offset=".99"/></linearGradient><path d="M14.6 268.7V280l1.9 2.7v35.2c0 12.2 5.4 78 10.9 99s19.3 53.7 27.3 68.8c8 15.2 14.9 27 25.1 29.8 15.5 4.3 22.9 3.8 42.7-14.6 24-22.3 43.6-66 55.6-127.6 7.4-38 17.7-134.8 11.4-192.8-5.8-54.1-23.5-106.6-42.4-131.2C132.2 29.9 111 31.2 111 31.2l-1.7-3.8V22l-6.9 5.4v3.8l-2.7-3.8-4.4 2.2-1.6 11.7-.7-9.7-5.9 5.6v7.3L85 39.2l-5.8 5.4v8l-1.6-5-4.1 5v9.2l-3.1-4.2-4.1 4.2 1.5 5.4-3.2 6.1V69l-4.2 7.3v5h-3.8L52 89.7l2 8.3-1.9-1.5h-2.4l-2.4 6.5 2.4 5-5.1 2.3-2.4 9.2 2.4 6.5h-4.3l-4.4 9.9 2.8 5h-2.8l-4 11.5 2.7 2.6 1.4 3.7h-4l-3.4 9.4 1.5 8.8H27l-3.1 10.3 3.8 2-3.8 3.9-2.3 13.2 3.1 1.9L20 212l-1.9 11.5 6.1 7.1h-6.1v11l4.5 5.6-6.1 2.3v9.6l5.4 5.7-7.3 3.9zm30.2.6c0-71.4 22.5-129.3 50.3-129.3s50.3 57.9 50.3 129.3-22.5 129.3-50.3 129.3-50.3-57.9-50.3-129.3z" fill="url(#h)"/><linearGradient id="i" x1="-180.49" x2="-197.12" y1="209.69" y2="105.89" gradientTransform="matrix(-1 0 0 1 -75.433 0)" gradientUnits="userSpaceOnUse"><stop stop-color="#fff" offset="0"/><stop stop-color="#A3A5A8" offset=".191"/><stop stop-color="#7E8081" offset=".385"/><stop stop-color="#B9BBBD" offset=".662"/><stop stop-color="#77787B" offset=".904"/><stop stop-color="#383738" offset=".99"/></linearGradient><path d="M113.6 189.1s-2.5-14.2 3.7-19.2c6.2-4.9 10.4-1.9 10.4-1.9s-3-11.9-6.1-13-16.5 6.2-23.4 17-8 19.7 1.5 20.8 13.9-3.7 13.9-3.7z" fill="url(#i)"/><linearGradient id="j" x1="-151.79" x2="-168.42" y1="194.78" y2="90.976" gradientTransform="matrix(-1 0 0 1 -75.433 0)" gradientUnits="userSpaceOnUse"><stop stop-color="#fff" offset="0"/><stop stop-color="#818385" offset=".196"/><stop stop-color="#696A6C" offset=".385"/><stop stop-color="#8D8F91" offset=".662"/><stop stop-color="#5E5F61" offset=".904"/><stop stop-color="#383738" offset=".99"/></linearGradient><path d="M84.9 174.2S82.4 160 88.6 155c6.2-4.9 10.4-1.9 10.4-1.9s-3-11.9-6.1-13-16.5 6.2-23.4 17c-6.9 10.9-8 19.7 1.5 20.8 9.7 1.2 13.9-3.7 13.9-3.7z" fill="url(#j)"/><linearGradient id="k" x1="-393.42" x2="-412.38" y1="391.16" y2="272.82" gradientTransform="scale(-1 1) rotate(74.58 -257.633 585.89)" gradientUnits="userSpaceOnUse"><stop stop-color="#fff" offset="0"/><stop stop-color="#818385" offset=".196"/><stop stop-color="#696A6C" offset=".385"/><stop stop-color="#8D8F91" offset=".662"/><stop stop-color="#5E5F61" offset=".904"/><stop stop-color="#383738" offset=".99"/></linearGradient><path d="M86.4 388.5s-11.7-2.9-14.8-10.2-1.8-9-1.8-9-15.8-6.2-17.8-3.5c-1.9 2.7 5.2 23.4 13.8 33 8.6 9.5 16.8 13 20.5 4.1 3.7-9 .1-14.4.1-14.4z" fill="url(#k)"/><linearGradient id="l" x1="-195.08" x2="-196.22" y1="268.41" y2="199.59" gradientTransform="matrix(-1 0 0 1 -75.433 0)" gradientUnits="userSpaceOnUse"><stop stop-color="#fff" offset="0"/><stop stop-color="#A3A5A8" offset=".191"/><stop stop-color="#7E8081" offset=".385"/><stop stop-color="#B9BBBD" offset=".662"/><stop stop-color="#77787B" offset=".904"/><stop stop-color="#383738" offset=".99"/></linearGradient><path d="M134.4 212.3s-13.9 6.7-13.9 19c0 8.4 5.4 21.2 5.4 21.2s-19 .8-19-11.9c-.1-12.6-2.3-23.3 6.4-28.3 8.8-4.9 21.1 0 21.1 0z" fill="url(#l)"/><linearGradient id="m" x1="-204.29" x2="-185.36" y1="355.19" y2="265.72" gradientTransform="matrix(-1 0 0 1 -75.433 0)" gradientUnits="userSpaceOnUse"><stop stop-color="#fff" offset="0"/><stop stop-color="#A3A5A8" offset=".191"/><stop stop-color="#7E8081" offset=".385"/><stop stop-color="#AAACAF" offset=".662"/><stop stop-color="#77787B" offset=".904"/><stop stop-color="#383738" offset=".99"/></linearGradient><path d="M129.7 282.7s-13.4 11.9-12.2 21 14.9 23 14.9 23-23.2 9-25.6-1.8c-2.3-10.8-7.5-20.8-1.1-31.9s24-10.3 24-10.3z" fill="url(#m)"/><linearGradient id="n" x1="-345.93" x2="-327" y1="360.1" y2="270.63" gradientTransform="scale(-1 1) rotate(48.048 -282.12 598.924)" gradientUnits="userSpaceOnUse"><stop stop-color="#fff" offset="0"/><stop stop-color="#A3A5A8" offset=".191"/><stop stop-color="#757779" offset=".385"/><stop stop-color="#838587" offset=".662"/><stop stop-color="#77787B" offset=".904"/><stop stop-color="#383738" offset=".99"/></linearGradient><path d="M93.8 342.7s-.1 17.9 7.5 23.1c7.6 5.3 27.1 4.3 27.1 4.3s-8.8 23.3-18.4 17.8-20.5-8.3-24.4-20.5c-4.1-12.1 8.2-24.7 8.2-24.7z" fill="url(#n)"/><linearGradient id="o" x1="-147.28" x2="-131.79" y1="345.47" y2="191.78" gradientTransform="matrix(-1 0 0 1 -75.433 0)" gradientUnits="userSpaceOnUse"><stop stop-color="#fff" offset="0"/><stop stop-color="#A3A5A8" offset=".191"/><stop stop-color="#7E8081" offset=".385"/><stop stop-color="#AAACAF" offset=".662"/><stop stop-color="#77787B" offset=".904"/><stop stop-color="#383738" offset=".99"/></linearGradient><path d="M81.7 213.9s-12 40.1-10.1 68.8 6 44 6 44-17.1 14.1-22.4 6.1c-5.4-8-20.1-56.2-8.9-82.6s14.1-38.1 20.1-40c6-2.1 15.3 3.7 15.3 3.7z" fill="url(#o)"/><linearGradient id="p" x1="-193.18" x2="-157.24" y1="518.46" y2="42.075" gradientTransform="matrix(-1 0 0 1 -75.433 0)" gradientUnits="userSpaceOnUse"><stop stop-color="#B5B7B9" offset=".024"/><stop stop-color="#737477" offset=".179"/><stop stop-color="#454547" offset=".794"/><stop stop-color="#404041" offset=".99"/></linearGradient><path d="M109.5 410c1.7-1.2-8.4 14.1-22.4 15.7-14 1.5-28.9-10.7-28.9-10.7s11.1 22.2 28.9 14.5 27.4-18.4 34.6-34.4C128.9 379 145.5 288 145.5 288s-10 59.6-6.4 59.6 14.5-42.3 15.9-71.2-1.2-67.9-2.4-76c-1.1-8-4.2-4.6-4.6-1.9s1.9-2.6-4.2-24.6-18.3-43-26.3-48c-8.1-5-14.9-7.3-14.9-7.3s22.3 1.1 17.8-8.4c-4.5-9.6 11.5-15.7 3.1-21s-18.2-8.4-20.9-11.1-35.4 17.2-34.7 16.1 24.5-27.9 37.8-29.8 25.9 9.2 26.7 5.7c.8-3.4-7-26-8.1-28.7s32.2 42.1 41.9 63.9 16.2 107.8 4 185.1C158 367.6 137 413.1 127.4 436s-20.6 31.7-20.6 31.7 14.1-.8 21.4-13.4 13.8-24.5 13.8-24.5-19.9 50.9-27.1 56.2-43.2 2.3-43.2 2.3 3.6 17.2 22.2 9.6c18.7-7.6 29.8-17 29.8-17s-9.9 16.2-27.5 21.2-26.2 1.1-34.1-9.6-26.3-48.9-32-75.7-9.2-48.2-10.7-84.9-1.9-76.1 1.9-97.7-9.9 91.4 6.3 131.4 34.2 53.8 48.5 53.6 10.9 6.9 33.4-9.2z" fill="url(#p)"/><radialGradient id="q" cx="-152.76" cy="457.04" r="110.21" gradientTransform="matrix(-1 0 0 1 -75.433 0)" gradientUnits="userSpaceOnUse"><stop stop-color="#fff" offset="0"/><stop stop-color="#8E9093" offset=".794"/><stop stop-color="#616264" offset=".99"/></radialGradient><path d="M61.9 473.9c-.2-.2-12.7-11.1-16-19.9-3.4-8.8-14.8-48.6-14.8-48.6s2.7 54.7 23.7 66.9 31.8 8.7 31.8 8.7-20.6-3.3-24.7-7.1z" fill="url(#q)"/><path d="M31.1 435.3l-3.6 3.2-3.2-9.7 3.2-5s-1.7 0-3.2-1.1-2.7-10.3-2.7-10.3h2.7l2.1 7.1-1.7 1.3 6.4 14.5zM20.7 407.5c0-.6 1.5-4.8 1.5-4.8l-1.5-10.9-2.6 5.2 2.6 10.5zM18.1 388.6l1.1-2.8-1.1-9.8-1.6 1.9zM18.1 370.8l-1.6 1.2-1.9-10.5 1.8-2.3zM14.6 342h1.7v12.2h-1.7zM14.6 322.5l-2.1 2.4 1.1 11.9h1.9l-.9-14.3zM14.6 303.7l-2.1 2.8 1.1 10.6zM14.6 285.9h-1l-1.1 12.7H14z" fill="#4B4C4C"/><radialGradient id="r" cx="-120.34" cy="344.46" r=".269" gradientTransform="matrix(-1 0 0 1 -75.433 0)" gradientUnits="userSpaceOnUse"><stop stop-color="#fff" offset="0"/><stop stop-color="#8E9093" offset=".794"/><stop stop-color="#616264" offset=".99"/></radialGradient><path d="M44.9 344.8s-.1-.2-.2-.5c.1.1.2.3.2.5z" fill="url(#r)"/><radialGradient id="s" cx="-195.96" cy="264.29" r="147.07" gradientTransform="matrix(-1 0 0 1 -75.433 0)" gradientUnits="userSpaceOnUse"><stop stop-color="#fff" offset="0"/><stop stop-color="#8E9093" offset=".794"/><stop stop-color="#616264" offset=".99"/></radialGradient><path d="M45.2 345.6c.5 1.8 2.9 10.5 4.5 15.9 2.4 8.4 7.2 25.2 12.9 35.9s19.3 25.6 30.4 21 28.3-27.5 36.3-49.6 15.3-69.7 16.1-95.7-1.9-73.4-6.3-96.3-17.8-38.6-26.6-44.7-18.7-3.8-30.8 8c-12.1 11.9-23.5 42.1-23.5 42.1s-.9 2.1-2.3 7.6c4.4-6.6 9.4-9.9 15.3-9.1 11.1 1.5 12.6 4.6 12.6 4.6s16.1 20.3 16.1 55.1c0 17.2-.8 55.4-3.1 69.2-4.6 28.3-18.7 50.9-25.2 54.7s-15.3.8-21.4-7.6c-1.9-2.8-3.5-6.4-5-11.1zM95.5 147s-3.6 16.4-10.1 21.4-17.5 8.4-17.5 8.4 6.7-31 27.6-29.8zm19.2 37.5c-9.9 6.5-20.9 6.1-19-1.2s6.7-15.7 14.1-20.6c7.4-5 13.3-5.7 13.8 0-.1-.1 1 15.3-8.9 21.8zm24.4 44.9c0 9.8-7 17.8-15.6 17.8s-14-4.3-14-14.1S118 214 126.6 214c8.7-.1 12.5 5.5 12.5 15.4zM116.3 323c-10.9-4.2-10.3-21.2-8.4-27.7s13.4-7.3 13.4-7.3c12.2 2.3 15.7 14.9 15.3 25.6-.4 10.8-9.4 13.6-20.3 9.4zm-24.1 28.1c5-3.4 13.4 1.8 19.1 7.6 2.3 2.3 8.4 10.7 5 20.6s-13.8 3.1-20.9-2.7c-7-5.6-8.1-22-3.2-25.5zm-31.7 18.4c.4-3.1 12.2 4.6 19.5 13s6.5 18.4 6.5 18.4c.2 4.3-3.4.8-10.6-4.6s-15.8-23.8-15.4-26.8z" fill="url(#s)"/><linearGradient id="t" x1="-194.12" x2="-115.14" y1="276.01" y2="271.56" gradientTransform="matrix(-1 0 0 1 -75.433 0)" gradientUnits="userSpaceOnUse"><stop stop-color="#fff" offset="0"/><stop stop-color="#8E9093" offset=".794"/><stop stop-color="#616264" offset=".99"/></linearGradient><path d="M39.2 298.6c2.3 29.6 4.9 49.5 11 57.9s14.9 11.5 21.4 7.6c6.5-3.8 20.6-26.4 25.2-54.7 2.2-13.8 4.3-51.4 3.1-69.2-2.4-34.7-10.7-48.5-14.1-52.2s-3.5-5.9-14.6-7.4S51.7 192.5 46 215c-5.8 22.6-9.1 53.5-6.8 83.6zm9.1-35c1.9-24.1 14.1-51.2 25.2-45.5s11.8 37.8 11.5 55c-.2 10.3-5.4 55.4-21 53.5s-17.6-38.9-15.7-63z" fill="url(#t)"/><ellipse cx="87.1" cy="227.1" rx="2.1" ry="6.7" fill="#3C3C3C"/><ellipse cx="75.6" cy="203.3" rx="2" ry="7" fill="#3C3C3C"/><ellipse cx="61.9" cy="208.1" rx="2.1" ry="7.6" fill="#3C3C3C"/><ellipse cx="50.9" cy="234.3" rx="1.2" ry="7.2" fill="#3C3C3C"/><ellipse cx="43.4" cy="273.7" rx="1.2" ry="6.7" fill="#3C3C3C"/><ellipse cx="45.9" cy="312.9" rx="1.4" ry="6.5" fill="#3C3C3C"/><ellipse cx="56.5" cy="338.5" rx="1.7" ry="6.5" fill="#3C3C3C"/><ellipse cx="71.6" cy="338.5" rx="1.9" ry="6.5" fill="#3C3C3C"/><ellipse cx="84.4" cy="312.2" rx="2.7" ry="5.7" fill="#3C3C3C"/><ellipse cx="91.1" cy="268.7" rx="1.9" ry="6.7" fill="#3C3C3C"/><linearGradient id="u" x1="-203.26" x2="-147.02" y1="276.3" y2="276.3" gradientTransform="matrix(-1 0 0 1 -75.433 0)" gradientUnits="userSpaceOnUse"><stop stop-color="#737477" offset="0"/><stop stop-color="#454547" offset=".794"/><stop stop-color="#383738" offset=".99"/></linearGradient><path d="M71.6 364.1s8.8 2.5 9.6 3.4c.9.8 1.5.8 2 2 .6 1.1 0 1.7 0 1.7s.6 2.9 3.9 7.7 16.2 20 16.2 20l-2.4-7.1s4.7 3.1 5.6 5.3c.4.9-.7 2.6-2.2 4.3-2.2 2.6-5.4 5.4-5.4 5.4l5.9-3.6s10.1-10.5 14-16.4c3.9-5.8 8.9-25.7 8.9-26.9 0-1.1-.9-4-3-5.7-2-1.7-20.2-19.4-20.2-19.4l-1.1 4c-1.1 4-10.4 9.4-10.4 9.4-3.7 2.4-12.3 13.7-12.3 13.7l8-15.9s10.5-37.3 12-68.3c.6-12.2.4-56.5-3.3-69.6C93.8 195 83 183 83 183l5.2-.1s3-5.2 9.2-12.8c6.1-7.6 20.1-24.2 20.1-24.2s-13.2 12.6-20.2 19.1-10.5 16.6-10.5 16.6-1.7-1.1-3.8-1.4-3.4 2.4-3.4 2.4 10.6 12.8 15.8 27.6 3.8 64.6 1.4 88.2-6.6 36.8-12.8 49.4c-4.1 8.3-12.4 16.3-12.4 16.3zM95 349.8s9.9.1 17 12.6 4.8 21.3-.5 22.2-9.6-1.3-16-11.1c-6.3-9.8-9.4-21.8-.5-23.7z" fill="url(#u)"/></g></switch></svg>