<svg width="283" height="283" viewBox="0 0 283 283" fill="none" xmlns="http://www.w3.org/2000/svg">
<path d="M141.421 3.29018e-05L0 141.421L141.421 282.843L282.843 141.421L141.421 3.29018e-05Z" fill="#1A3C55"/>
<path d="M202.095 171.306L111.585 80.796L100.978 91.4026L191.488 181.912L202.095 171.306Z" fill="#91E3E3"/>
<path d="M142.491 48.0862L100.065 90.5126L110.672 101.119L153.098 58.6928L142.491 48.0862Z" fill="#91E3E3"/>
<path d="M169.361 74.9567L126.935 117.383L137.542 127.99L179.968 85.5632L169.361 74.9567Z" fill="#91E3E3"/>
<path d="M153.805 144.253L196.231 101.826L206.838 112.433L164.411 154.859L153.805 144.253Z" fill="#91E3E3"/>
<path d="M180.675 171.123L223.101 128.696L233.708 139.303L191.281 181.729L180.675 171.123Z" fill="#91E3E3"/>
<path d="M170.27 202.888L82.302 114.082L92.959 103.525L180.926 192.332L170.27 202.888Z" fill="#91E3E3"/>
<path d="M138.014 234.852L180.641 192.628L170.085 181.971L127.458 224.196L138.014 234.852Z" fill="#91E3E3"/>
<path d="M111.272 207.855L153.899 165.63L143.343 154.973L100.716 197.198L111.272 207.855Z" fill="#91E3E3"/>
<path d="M127.157 138.633L84.53 180.858L73.974 170.201L116.601 127.976L127.157 138.633Z" fill="#91E3E3"/>
<path d="M100.415 111.636L57.787 153.86L47.231 143.203L89.859 100.979L100.415 111.636Z" fill="#91E3E3"/>
<path d="M84.0634 180.91L155.109 110.536L144.553 99.8792L73.5073 170.253L84.0634 180.91Z" fill="#91E3E3"/>
<path d="M181.979 137.406L110.933 207.781L100.377 197.124L171.423 126.749L181.979 137.406Z" fill="#91E3E3"/>
</svg>
