<svg width="1071" height="591" viewBox="0 0 1071 591" fill="none" xmlns="http://www.w3.org/2000/svg">
<path d="M564 138H1L37 196H564V138Z" fill="#91E3E3" stroke="black" stroke-width="0.1"/>
<path d="M504 226H55L89 281H504V226Z" fill="#91E3E3" stroke="black" stroke-width="0.1"/>
<path d="M442 308H97L137 366H442V308Z" fill="#91E3E3" stroke="black" stroke-width="0.1"/>
<path d="M509 391H149L185 449H509V391Z" fill="#91E3E3" stroke="black" stroke-width="0.1"/>
<path d="M586.843 12.9999L304 295.843L586.843 578.685L869.685 295.843L586.843 12.9999Z" fill="#91E3E3"/>
<path d="M493.421 3.29018e-05L352 141.421L493.421 282.843L634.843 141.421L493.421 3.29018e-05Z" fill="#1A3C55"/>
<path d="M554.095 171.306L463.585 80.796L452.978 91.4026L543.488 181.912L554.095 171.306Z" fill="#CE2B3F"/>
<path d="M494.491 48.0862L452.065 90.5126L462.672 101.119L505.098 58.6928L494.491 48.0862Z" fill="#CE2B3F"/>
<path d="M521.361 74.9567L478.935 117.383L489.542 127.99L531.968 85.5632L521.361 74.9567Z" fill="#CE2B3F"/>
<path d="M505.805 144.253L548.231 101.826L558.838 112.433L516.411 154.859L505.805 144.253Z" fill="#CE2B3F"/>
<path d="M532.675 171.123L575.101 128.696L585.708 139.303L543.281 181.729L532.675 171.123Z" fill="#CE2B3F"/>
<path d="M522.27 202.888L434.302 114.082L444.959 103.525L532.926 192.332L522.27 202.888Z" fill="#CE2B3F"/>
<path d="M490.014 234.852L532.641 192.628L522.085 181.971L479.458 224.196L490.014 234.852Z" fill="#CE2B3F"/>
<path d="M463.272 207.855L505.899 165.63L495.343 154.973L452.716 197.198L463.272 207.855Z" fill="#CE2B3F"/>
<path d="M479.157 138.633L436.53 180.858L425.974 170.201L468.601 127.976L479.157 138.633Z" fill="#CE2B3F"/>
<path d="M452.415 111.636L409.787 153.86L399.231 143.203L441.859 100.979L452.415 111.636Z" fill="#CE2B3F"/>
<path d="M436.063 180.91L507.109 110.536L496.553 99.8792L425.507 170.253L436.063 180.91Z" fill="#CE2B3F"/>
<path d="M533.979 137.406L462.933 207.781L452.377 197.124L523.423 126.749L533.979 137.406Z" fill="#CE2B3F"/>
<path d="M337.421 155.001L196 296.422L337.421 437.843L478.843 296.422L337.421 155.001Z" fill="#1A3C55"/>
<path d="M399.095 327.306L308.585 236.796L297.978 247.403L388.488 337.912L399.095 327.306Z" fill="#CE2B3F"/>
<path d="M339.491 204.087L297.065 246.513L307.672 257.12L350.098 214.693L339.491 204.087Z" fill="#CE2B3F"/>
<path d="M366.361 230.957L323.935 273.383L334.542 283.99L376.968 241.563L366.361 230.957Z" fill="#CE2B3F"/>
<path d="M350.805 300.253L393.231 257.826L403.838 268.433L361.411 310.859L350.805 300.253Z" fill="#CE2B3F"/>
<path d="M377.675 327.123L420.101 284.696L430.708 295.303L388.281 337.729L377.675 327.123Z" fill="#CE2B3F"/>
<path d="M367.27 358.888L279.302 270.082L289.959 259.525L377.926 348.332L367.27 358.888Z" fill="#CE2B3F"/>
<path d="M335.014 390.853L377.641 348.628L367.085 337.971L324.458 380.196L335.014 390.853Z" fill="#CE2B3F"/>
<path d="M308.272 363.855L350.899 321.63L340.343 310.973L297.716 353.198L308.272 363.855Z" fill="#CE2B3F"/>
<path d="M324.157 294.633L281.53 336.858L270.974 326.201L313.601 283.976L324.157 294.633Z" fill="#CE2B3F"/>
<path d="M297.415 267.636L254.787 309.86L244.231 299.203L286.859 256.979L297.415 267.636Z" fill="#CE2B3F"/>
<path d="M281.063 336.91L352.109 266.536L341.553 255.879L270.507 326.253L281.063 336.91Z" fill="#CE2B3F"/>
<path d="M378.979 293.406L307.933 363.781L297.377 353.124L368.423 282.749L378.979 293.406Z" fill="#CE2B3F"/>
<path d="M493.421 308.001L352 449.422L493.421 590.843L634.843 449.422L493.421 308.001Z" fill="#1A3C55"/>
<path d="M555.095 480.306L464.585 389.796L453.978 400.403L544.488 490.912L555.095 480.306Z" fill="#CE2B3F"/>
<path d="M495.491 357.087L453.065 399.513L463.672 410.12L506.098 367.693L495.491 357.087Z" fill="#CE2B3F"/>
<path d="M522.361 383.957L479.935 426.383L490.542 436.99L532.968 394.563L522.361 383.957Z" fill="#CE2B3F"/>
<path d="M506.805 453.253L549.231 410.826L559.838 421.433L517.411 463.859L506.805 453.253Z" fill="#CE2B3F"/>
<path d="M533.675 480.123L576.101 437.696L586.708 448.303L544.281 490.729L533.675 480.123Z" fill="#CE2B3F"/>
<path d="M523.27 511.888L435.302 423.082L445.959 412.525L533.926 501.332L523.27 511.888Z" fill="#CE2B3F"/>
<path d="M491.014 543.852L533.641 501.628L523.085 490.971L480.458 533.196L491.014 543.852Z" fill="#CE2B3F"/>
<path d="M464.272 516.855L506.899 474.63L496.343 463.973L453.716 506.198L464.272 516.855Z" fill="#CE2B3F"/>
<path d="M480.157 447.633L437.53 489.858L426.974 479.201L469.601 436.976L480.157 447.633Z" fill="#CE2B3F"/>
<path d="M453.415 420.636L410.787 462.86L400.231 452.203L442.859 409.979L453.415 420.636Z" fill="#CE2B3F"/>
<path d="M437.063 489.91L508.109 419.536L497.553 408.879L426.507 479.253L437.063 489.91Z" fill="#CE2B3F"/>
<path d="M534.979 446.406L463.933 516.781L453.377 506.124L524.423 435.749L534.979 446.406Z" fill="#CE2B3F"/>
<path d="M641.484 359H608.53V239.469H694.36V254.742H641.484V291.681H682.324V306.871H641.484V359ZM808.579 322.477C808.579 327.623 807.915 332.161 806.587 336.09C805.314 340.019 803.488 343.422 801.108 346.3C798.784 349.177 796.017 351.585 792.808 353.521C789.598 355.458 786.084 357.008 782.266 358.17C778.503 359.332 774.491 360.162 770.229 360.66C766.024 361.158 761.735 361.407 757.363 361.407C751.608 361.407 746.296 360.965 741.426 360.079C736.556 359.249 731.963 357.921 727.646 356.095C723.385 354.213 719.263 351.806 715.278 348.873C711.349 345.94 707.42 342.371 703.491 338.165L720.425 320.982C721.974 324.801 724.105 328.342 726.816 331.607C729.528 334.817 732.489 337.584 735.698 339.908C738.963 342.232 742.339 344.059 745.825 345.387C749.312 346.715 752.604 347.379 755.703 347.379C759.355 347.379 762.786 347.13 765.996 346.632C769.206 346.078 772 345.193 774.38 343.976C776.759 342.758 778.613 341.153 779.941 339.161C781.325 337.114 782.017 334.568 782.017 331.524C782.017 329.2 781.491 327.208 780.439 325.548C779.388 323.888 778.005 322.477 776.289 321.314C774.629 320.097 772.72 319.073 770.562 318.243C768.403 317.413 766.19 316.721 763.921 316.168C761.707 315.559 759.521 315.034 757.363 314.591C755.205 314.093 753.296 313.595 751.636 313.097C748.371 312.156 744.967 311.16 741.426 310.108C737.884 309.002 734.398 307.757 730.967 306.373C727.536 304.99 724.271 303.412 721.172 301.642C718.128 299.815 715.444 297.685 713.12 295.25C710.796 292.76 708.942 289.91 707.559 286.7C706.175 283.435 705.483 279.7 705.483 275.494C705.483 270.458 706.092 266.004 707.31 262.13C708.582 258.201 710.353 254.798 712.622 251.92C714.891 249.042 717.575 246.635 720.674 244.698C723.773 242.706 727.176 241.129 730.884 239.967C734.591 238.749 738.521 237.892 742.671 237.394C746.877 236.84 751.165 236.563 755.537 236.563C761.514 236.563 766.937 237.117 771.807 238.224C776.732 239.33 781.27 240.908 785.42 242.955C789.57 245.003 793.361 247.465 796.792 250.343C800.278 253.165 803.543 256.319 806.587 259.806L789.653 276.988C788.325 273.004 786.471 269.407 784.092 266.197C781.768 262.988 779.167 260.248 776.289 257.979C773.411 255.655 770.396 253.884 767.241 252.667C764.087 251.394 761.043 250.758 758.11 250.758C754.292 250.758 750.778 251.035 747.568 251.588C744.359 252.086 741.592 252.944 739.268 254.161C736.999 255.323 735.228 256.928 733.955 258.976C732.682 260.968 732.046 263.458 732.046 266.446C732.046 268.826 732.516 270.846 733.457 272.506C734.398 274.166 735.643 275.577 737.192 276.739C738.797 277.901 740.596 278.87 742.588 279.645C744.58 280.364 746.628 281 748.73 281.554C750.889 282.107 752.992 282.605 755.039 283.048C757.142 283.435 759.051 283.878 760.767 284.376C764.087 285.317 767.573 286.313 771.226 287.364C774.878 288.416 778.475 289.661 782.017 291.1C785.558 292.483 788.934 294.088 792.144 295.914C795.353 297.74 798.175 299.926 800.61 302.472C803.045 304.962 804.982 307.867 806.421 311.188C807.86 314.452 808.579 318.215 808.579 322.477ZM945.044 299.068C945.044 304.879 944.269 310.413 942.72 315.67C941.17 320.872 938.984 325.686 936.162 330.113C933.395 334.54 930.075 338.552 926.201 342.149C922.327 345.691 918.039 348.707 913.335 351.197C908.687 353.688 903.678 355.624 898.311 357.008C892.998 358.336 887.52 359 881.875 359H829.165V239.469H881.875C887.52 239.469 892.998 240.133 898.311 241.461C903.623 242.789 908.604 244.698 913.252 247.188C917.956 249.623 922.244 252.612 926.118 256.153C930.047 259.695 933.395 263.679 936.162 268.106C938.984 272.478 941.17 277.293 942.72 282.55C944.269 287.752 945.044 293.258 945.044 299.068ZM911.592 299.068C911.592 292.594 910.789 286.451 909.185 280.641C907.635 274.775 905.2 269.628 901.88 265.201C898.56 260.774 894.326 257.26 889.18 254.659C884.089 252.058 877.974 250.758 870.835 250.758H862.119V347.379H870.835C877.863 347.379 883.923 346.078 889.014 343.478C894.16 340.821 898.394 337.28 901.714 332.853C905.09 328.37 907.58 323.224 909.185 317.413C910.789 311.603 911.592 305.488 911.592 299.068ZM1063.25 322.477C1063.25 327.623 1062.58 332.161 1061.25 336.09C1059.98 340.019 1058.16 343.422 1055.78 346.3C1053.45 349.177 1050.69 351.585 1047.48 353.521C1044.27 355.458 1040.75 357.008 1036.93 358.17C1033.17 359.332 1029.16 360.162 1024.9 360.66C1020.69 361.158 1016.4 361.407 1012.03 361.407C1006.28 361.407 1000.96 360.965 996.094 360.079C991.224 359.249 986.631 357.921 982.314 356.095C978.053 354.213 973.931 351.806 969.946 348.873C966.017 345.94 962.088 342.371 958.159 338.165L975.093 320.982C976.642 324.801 978.773 328.342 981.484 331.607C984.196 334.817 987.157 337.584 990.366 339.908C993.631 342.232 997.007 344.059 1000.49 345.387C1003.98 346.715 1007.27 347.379 1010.37 347.379C1014.02 347.379 1017.45 347.13 1020.66 346.632C1023.87 346.078 1026.67 345.193 1029.05 343.976C1031.43 342.758 1033.28 341.153 1034.61 339.161C1035.99 337.114 1036.68 334.568 1036.68 331.524C1036.68 329.2 1036.16 327.208 1035.11 325.548C1034.06 323.888 1032.67 322.477 1030.96 321.314C1029.3 320.097 1027.39 319.073 1025.23 318.243C1023.07 317.413 1020.86 316.721 1018.59 316.168C1016.38 315.559 1014.19 315.034 1012.03 314.591C1009.87 314.093 1007.96 313.595 1006.3 313.097C1003.04 312.156 999.635 311.16 996.094 310.108C992.552 309.002 989.066 307.757 985.635 306.373C982.204 304.99 978.939 303.412 975.84 301.642C972.796 299.815 970.112 297.685 967.788 295.25C965.464 292.76 963.61 289.91 962.227 286.7C960.843 283.435 960.151 279.7 960.151 275.494C960.151 270.458 960.76 266.004 961.978 262.13C963.25 258.201 965.021 254.798 967.29 251.92C969.559 249.042 972.243 246.635 975.342 244.698C978.441 242.706 981.844 241.129 985.552 239.967C989.259 238.749 993.188 237.892 997.339 237.394C1001.54 236.84 1005.83 236.563 1010.21 236.563C1016.18 236.563 1021.6 237.117 1026.47 238.224C1031.4 239.33 1035.94 240.908 1040.09 242.955C1044.24 245.003 1048.03 247.465 1051.46 250.343C1054.95 253.165 1058.21 256.319 1061.25 259.806L1044.32 276.988C1042.99 273.004 1041.14 269.407 1038.76 266.197C1036.44 262.988 1033.83 260.248 1030.96 257.979C1028.08 255.655 1025.06 253.884 1021.91 252.667C1018.75 251.394 1015.71 250.758 1012.78 250.758C1008.96 250.758 1005.45 251.035 1002.24 251.588C999.027 252.086 996.26 252.944 993.936 254.161C991.667 255.323 989.896 256.928 988.623 258.976C987.35 260.968 986.714 263.458 986.714 266.446C986.714 268.826 987.184 270.846 988.125 272.506C989.066 274.166 990.311 275.577 991.86 276.739C993.465 277.901 995.264 278.87 997.256 279.645C999.248 280.364 1001.3 281 1003.4 281.554C1005.56 282.107 1007.66 282.605 1009.71 283.048C1011.81 283.435 1013.72 283.878 1015.43 284.376C1018.75 285.317 1022.24 286.313 1025.89 287.364C1029.55 288.416 1033.14 289.661 1036.68 291.1C1040.23 292.483 1043.6 294.088 1046.81 295.914C1050.02 297.74 1052.84 299.926 1055.28 302.472C1057.71 304.962 1059.65 307.867 1061.09 311.188C1062.53 314.452 1063.25 318.215 1063.25 322.477Z" fill="#1A3C55"/>
</svg>
