<svg width="875" height="591" viewBox="0 0 875 591" fill="none" xmlns="http://www.w3.org/2000/svg">
<path d="M390.843 13L108 295.843L390.843 578.685L673.685 295.843L390.843 13Z" fill="#91E3E3"/>
<path d="M297.421 3.29018e-05L156 141.421L297.421 282.843L438.843 141.421L297.421 3.29018e-05Z" fill="#1A3C55"/>
<path d="M358.095 171.306L267.585 80.796L256.978 91.4026L347.488 181.912L358.095 171.306Z" fill="#CE2B3F"/>
<path d="M298.491 48.0862L256.065 90.5126L266.672 101.119L309.098 58.6928L298.491 48.0862Z" fill="#CE2B3F"/>
<path d="M325.361 74.9567L282.935 117.383L293.542 127.99L335.968 85.5632L325.361 74.9567Z" fill="#CE2B3F"/>
<path d="M309.805 144.253L352.231 101.826L362.838 112.433L320.411 154.859L309.805 144.253Z" fill="#CE2B3F"/>
<path d="M336.675 171.123L379.101 128.696L389.708 139.303L347.281 181.729L336.675 171.123Z" fill="#CE2B3F"/>
<path d="M326.27 202.888L238.302 114.082L248.959 103.525L336.926 192.332L326.27 202.888Z" fill="#CE2B3F"/>
<path d="M294.014 234.852L336.641 192.628L326.085 181.971L283.458 224.196L294.014 234.852Z" fill="#CE2B3F"/>
<path d="M267.272 207.855L309.899 165.63L299.343 154.973L256.716 197.198L267.272 207.855Z" fill="#CE2B3F"/>
<path d="M283.157 138.633L240.53 180.858L229.974 170.201L272.601 127.976L283.157 138.633Z" fill="#CE2B3F"/>
<path d="M256.415 111.636L213.787 153.86L203.231 143.203L245.859 100.979L256.415 111.636Z" fill="#CE2B3F"/>
<path d="M240.063 180.91L311.109 110.536L300.553 99.8792L229.507 170.253L240.063 180.91Z" fill="#CE2B3F"/>
<path d="M337.979 137.406L266.933 207.781L256.377 197.124L327.423 126.749L337.979 137.406Z" fill="#CE2B3F"/>
<path d="M141.421 155.001L0 296.422L141.421 437.843L282.843 296.422L141.421 155.001Z" fill="#1A3C55"/>
<path d="M203.095 327.306L112.585 236.796L101.978 247.403L192.488 337.912L203.095 327.306Z" fill="#CE2B3F"/>
<path d="M143.491 204.087L101.065 246.513L111.672 257.12L154.098 214.693L143.491 204.087Z" fill="#CE2B3F"/>
<path d="M170.361 230.957L127.935 273.383L138.542 283.99L180.968 241.563L170.361 230.957Z" fill="#CE2B3F"/>
<path d="M154.805 300.253L197.231 257.826L207.838 268.433L165.411 310.859L154.805 300.253Z" fill="#CE2B3F"/>
<path d="M181.675 327.123L224.101 284.696L234.708 295.303L192.281 337.729L181.675 327.123Z" fill="#CE2B3F"/>
<path d="M171.27 358.888L83.302 270.082L93.959 259.525L181.926 348.332L171.27 358.888Z" fill="#CE2B3F"/>
<path d="M139.014 390.853L181.641 348.628L171.085 337.971L128.458 380.196L139.014 390.853Z" fill="#CE2B3F"/>
<path d="M112.272 363.854L154.899 321.63L144.343 310.973L101.716 353.198L112.272 363.854Z" fill="#CE2B3F"/>
<path d="M128.157 294.633L85.53 336.858L74.9736 326.201L117.601 283.976L128.157 294.633Z" fill="#CE2B3F"/>
<path d="M101.415 267.636L58.7874 309.86L48.2313 299.203L90.859 256.979L101.415 267.636Z" fill="#CE2B3F"/>
<path d="M85.0634 336.91L156.109 266.536L145.553 255.879L74.5073 326.253L85.0634 336.91Z" fill="#CE2B3F"/>
<path d="M182.979 293.406L111.933 363.781L101.377 353.124L172.423 282.749L182.979 293.406Z" fill="#CE2B3F"/>
<path d="M297.421 308.001L156 449.422L297.421 590.843L438.843 449.422L297.421 308.001Z" fill="#1A3C55"/>
<path d="M359.095 480.306L268.585 389.796L257.978 400.403L348.488 490.912L359.095 480.306Z" fill="#CE2B3F"/>
<path d="M299.491 357.087L257.065 399.513L267.672 410.12L310.098 367.693L299.491 357.087Z" fill="#CE2B3F"/>
<path d="M326.361 383.957L283.935 426.383L294.542 436.99L336.968 394.563L326.361 383.957Z" fill="#CE2B3F"/>
<path d="M310.805 453.253L353.231 410.826L363.838 421.433L321.411 463.859L310.805 453.253Z" fill="#CE2B3F"/>
<path d="M337.675 480.123L380.101 437.696L390.708 448.303L348.281 490.729L337.675 480.123Z" fill="#CE2B3F"/>
<path d="M327.27 511.888L239.302 423.082L249.959 412.525L337.926 501.332L327.27 511.888Z" fill="#CE2B3F"/>
<path d="M295.014 543.852L337.641 501.628L327.085 490.971L284.458 533.196L295.014 543.852Z" fill="#CE2B3F"/>
<path d="M268.272 516.854L310.899 474.63L300.343 463.973L257.716 506.198L268.272 516.854Z" fill="#CE2B3F"/>
<path d="M284.157 447.633L241.53 489.858L230.974 479.201L273.601 436.976L284.157 447.633Z" fill="#CE2B3F"/>
<path d="M257.415 420.636L214.787 462.86L204.231 452.203L246.859 409.979L257.415 420.636Z" fill="#CE2B3F"/>
<path d="M241.063 489.91L312.109 419.536L301.553 408.879L230.507 479.253L241.063 489.91Z" fill="#CE2B3F"/>
<path d="M338.979 446.406L267.933 516.781L257.377 506.124L328.423 435.749L338.979 446.406Z" fill="#CE2B3F"/>
<path d="M445.484 359H412.53V239.469H498.36V254.742H445.484V291.681H486.324V306.871H445.484V359ZM612.579 322.477C612.579 327.623 611.915 332.161 610.587 336.09C609.314 340.019 607.488 343.422 605.108 346.3C602.784 349.177 600.017 351.585 596.808 353.521C593.598 355.458 590.084 357.008 586.266 358.17C582.503 359.332 578.491 360.162 574.229 360.66C570.024 361.158 565.735 361.407 561.363 361.407C555.608 361.407 550.296 360.965 545.426 360.079C540.556 359.249 535.963 357.921 531.646 356.095C527.385 354.213 523.263 351.806 519.278 348.873C515.349 345.94 511.42 342.371 507.491 338.165L524.425 320.982C525.974 324.801 528.105 328.342 530.816 331.607C533.528 334.817 536.489 337.584 539.698 339.908C542.963 342.232 546.339 344.059 549.825 345.387C553.312 346.715 556.604 347.379 559.703 347.379C563.355 347.379 566.786 347.13 569.996 346.632C573.206 346.078 576 345.193 578.38 343.976C580.759 342.758 582.613 341.153 583.941 339.161C585.325 337.114 586.017 334.568 586.017 331.524C586.017 329.2 585.491 327.208 584.439 325.548C583.388 323.888 582.005 322.477 580.289 321.314C578.629 320.097 576.72 319.073 574.562 318.243C572.403 317.413 570.19 316.721 567.921 316.168C565.707 315.559 563.521 315.034 561.363 314.591C559.205 314.093 557.296 313.595 555.636 313.097C552.371 312.156 548.967 311.16 545.426 310.108C541.884 309.002 538.398 307.757 534.967 306.373C531.536 304.99 528.271 303.412 525.172 301.642C522.128 299.815 519.444 297.685 517.12 295.25C514.796 292.76 512.942 289.91 511.559 286.7C510.175 283.435 509.483 279.7 509.483 275.494C509.483 270.458 510.092 266.004 511.31 262.13C512.582 258.201 514.353 254.798 516.622 251.92C518.891 249.042 521.575 246.635 524.674 244.698C527.773 242.706 531.176 241.129 534.884 239.967C538.591 238.749 542.521 237.892 546.671 237.394C550.877 236.84 555.165 236.563 559.537 236.563C565.514 236.563 570.937 237.117 575.807 238.224C580.732 239.33 585.27 240.908 589.42 242.955C593.57 245.003 597.361 247.465 600.792 250.343C604.278 253.165 607.543 256.319 610.587 259.806L593.653 276.988C592.325 273.004 590.471 269.407 588.092 266.197C585.768 262.988 583.167 260.248 580.289 257.979C577.411 255.655 574.396 253.884 571.241 252.667C568.087 251.394 565.043 250.758 562.11 250.758C558.292 250.758 554.778 251.035 551.568 251.588C548.359 252.086 545.592 252.944 543.268 254.161C540.999 255.323 539.228 256.928 537.955 258.976C536.682 260.968 536.046 263.458 536.046 266.446C536.046 268.826 536.516 270.846 537.457 272.506C538.398 274.166 539.643 275.577 541.192 276.739C542.797 277.901 544.596 278.87 546.588 279.645C548.58 280.364 550.628 281 552.73 281.554C554.889 282.107 556.992 282.605 559.039 283.048C561.142 283.435 563.051 283.878 564.767 284.376C568.087 285.317 571.573 286.313 575.226 287.364C578.878 288.416 582.475 289.661 586.017 291.1C589.558 292.483 592.934 294.088 596.144 295.914C599.353 297.74 602.175 299.926 604.61 302.472C607.045 304.962 608.982 307.867 610.421 311.188C611.86 314.452 612.579 318.215 612.579 322.477ZM749.044 299.068C749.044 304.879 748.269 310.413 746.72 315.67C745.17 320.872 742.984 325.686 740.162 330.113C737.395 334.54 734.075 338.552 730.201 342.149C726.327 345.691 722.039 348.707 717.335 351.197C712.687 353.688 707.678 355.624 702.311 357.008C696.998 358.336 691.52 359 685.875 359H633.165V239.469H685.875C691.52 239.469 696.998 240.133 702.311 241.461C707.623 242.789 712.604 244.698 717.252 247.188C721.956 249.623 726.244 252.612 730.118 256.153C734.047 259.695 737.395 263.679 740.162 268.106C742.984 272.478 745.17 277.293 746.72 282.55C748.269 287.752 749.044 293.258 749.044 299.068ZM715.592 299.068C715.592 292.594 714.789 286.451 713.185 280.641C711.635 274.775 709.2 269.628 705.88 265.201C702.56 260.774 698.326 257.26 693.18 254.659C688.089 252.058 681.974 250.758 674.835 250.758H666.119V347.379H674.835C681.863 347.379 687.923 346.078 693.014 343.478C698.16 340.821 702.394 337.28 705.714 332.853C709.09 328.37 711.58 323.224 713.185 317.413C714.789 311.603 715.592 305.488 715.592 299.068ZM867.247 322.477C867.247 327.623 866.583 332.161 865.255 336.09C863.982 340.019 862.156 343.422 859.776 346.3C857.452 349.177 854.685 351.585 851.476 353.521C848.266 355.458 844.752 357.008 840.934 358.17C837.171 359.332 833.159 360.162 828.897 360.66C824.692 361.158 820.403 361.407 816.031 361.407C810.276 361.407 804.964 360.965 800.094 360.079C795.224 359.249 790.631 357.921 786.314 356.095C782.053 354.213 777.931 351.806 773.946 348.873C770.017 345.94 766.088 342.371 762.159 338.165L779.093 320.982C780.642 324.801 782.773 328.342 785.484 331.607C788.196 334.817 791.157 337.584 794.366 339.908C797.631 342.232 801.007 344.059 804.493 345.387C807.979 346.715 811.272 347.379 814.371 347.379C818.023 347.379 821.454 347.13 824.664 346.632C827.874 346.078 830.668 345.193 833.048 343.976C835.427 342.758 837.281 341.153 838.609 339.161C839.993 337.114 840.685 334.568 840.685 331.524C840.685 329.2 840.159 327.208 839.107 325.548C838.056 323.888 836.673 322.477 834.957 321.314C833.297 320.097 831.388 319.073 829.229 318.243C827.071 317.413 824.858 316.721 822.589 316.168C820.375 315.559 818.189 315.034 816.031 314.591C813.873 314.093 811.964 313.595 810.304 313.097C807.039 312.156 803.635 311.16 800.094 310.108C796.552 309.002 793.066 307.757 789.635 306.373C786.204 304.99 782.939 303.412 779.84 301.642C776.796 299.815 774.112 297.685 771.788 295.25C769.464 292.76 767.61 289.91 766.227 286.7C764.843 283.435 764.151 279.7 764.151 275.494C764.151 270.458 764.76 266.004 765.978 262.13C767.25 258.201 769.021 254.798 771.29 251.92C773.559 249.042 776.243 246.635 779.342 244.698C782.441 242.706 785.844 241.129 789.552 239.967C793.259 238.749 797.188 237.892 801.339 237.394C805.545 236.84 809.833 236.563 814.205 236.563C820.182 236.563 825.605 237.117 830.475 238.224C835.4 239.33 839.938 240.908 844.088 242.955C848.238 245.003 852.029 247.465 855.46 250.343C858.946 253.165 862.211 256.319 865.255 259.806L848.321 276.988C846.993 273.004 845.139 269.407 842.76 266.197C840.436 262.988 837.835 260.248 834.957 257.979C832.079 255.655 829.063 253.884 825.909 252.667C822.755 251.394 819.711 250.758 816.778 250.758C812.96 250.758 809.446 251.035 806.236 251.588C803.027 252.086 800.26 252.944 797.936 254.161C795.667 255.323 793.896 256.928 792.623 258.976C791.35 260.968 790.714 263.458 790.714 266.446C790.714 268.826 791.184 270.846 792.125 272.506C793.066 274.166 794.311 275.577 795.86 276.739C797.465 277.901 799.264 278.87 801.256 279.645C803.248 280.364 805.296 281 807.398 281.554C809.557 282.107 811.66 282.605 813.707 283.048C815.81 283.435 817.719 283.878 819.435 284.376C822.755 285.317 826.241 286.313 829.894 287.364C833.546 288.416 837.143 289.661 840.685 291.1C844.226 292.483 847.602 294.088 850.812 295.914C854.021 297.74 856.843 299.926 859.278 302.472C861.713 304.962 863.65 307.867 865.089 311.188C866.528 314.452 867.247 318.215 867.247 322.477Z" fill="#1A3C55"/>
</svg>
