<svg width="161" height="186" viewBox="0 0 161 186" fill="none" xmlns="http://www.w3.org/2000/svg">
<path d="M18 142.384V134.362V126.341V118.319V110.297V104.782V99.267V95.2561V89.7411V84.2262V82.5L18.5 78.5L19 75L19.5 71L19.9768 67.1798L21.4595 60.1608L22.5 53.6431L24 47L25.4131 41.109L26.8958 35.0926L28.3784 29.0763L29.861 23.5613L31.8378 19.049L34.5 15L37.7683 10.0245L41.2278 5.51226L44.6873 1H120L123.266 7.01635L125.737 11.5286L128.5 16M18 142.384L19.9768 150.406L21.4595 156.422L25.9073 160.935H138.5L140.5 156.5L142 152.5L143 150L144 147L144.517 145L145 142V139.5V136.5V132.5V125.5L144.517 118.319V108.793V103.278V95.2561V87.2343V80.2153L144 73L142.541 64.1717L141 57.5L139.575 51.1362L137.598 43.6158L135.5 33.5L133.151 26.0681L130.5 20L128.5 16M18 142.384V185H32.25V170.962H49.6293L53.0888 168.455H56.5483H60.5019H65.444H70.3861L73.8456 170.962L77.7992 173.97H82.2471H86.2008L88.1776 170.962L90.6486 169.959L93.6139 168.455H97.0734H103.992H108.934L111.9 170.962H116.842L129 169.959M128.5 16L125.737 19.049H32.25M136.61 69.5L131.174 45.4346L127.714 30.5804L125.737 22.0572H82.4942M136.61 76.5V95.2561L136 97.5L135.127 100.771L135.5 132.5V142M127.714 151.91H81.2587M26.5 75.5L26 81L25.9073 85V89.7411L26 96.5L26.5 99.267L26.8958 132V137.5V142.886L27.39 145.894L27.8842 147.899L28.8726 149.403L31.3436 151.409L33.8147 151.91H81.2587M26.8958 69.5L29.861 53.6431L31.8378 41.109L33.8147 30.5804L36 26.0681L37.5 23.5L39.251 22.0572H82.4942M82.4942 22.0572L81.2587 86.7812M81.2587 97.7629V151.91" stroke="#1A3C55" stroke-opacity="0.4"/>
<path d="M128.5 170V184.5H145V135" stroke="#1A3C55" stroke-opacity="0.4"/>
<path d="M145 88.5H148V77H153.5H156.5L160 80.5V83.5V92.5L159 95.5L156.5 97.5H153.5H151H145M145 97.5L135.5 99.5L135 103.5L135.5 110M145 97.5V105M135.5 110H145M135.5 110H130L125 111L118.5 112.5L115 113.5L108.5 115.5L105.5 117.5H135.5M145 110V105M145 110H148V105H145M76 142V137.5H32.5V142M76 142H32.5M76 142V145.5V148V149.5L73.5 151.5H35L32.5 149.5V142M18 88.5H13V77H3L1 80.5V83.5V95.5L5 97.5H11H13H17L26.5 99.5V110M26.5 110H18M26.5 110H30L35 111L43 112.5L53.5 116L56.5 117L58 117.5H26.5M18 110V117.5H26.5M18 110H14V104.75H18M26.5 117.5V125.5H18V129V132.5H27V135V137.5H18V142H26.5M145 117.5H135.5M135.5 117.5V125.5H145V132.5H135.5V137.5H145V140V142H135.5C135 144.5 135 147 130 151L127.5 152V155.5M127.5 155.5H141M127.5 155.5V162.5H35V155.5M35 155.5H21.5M35 155.5V152M30.5 69.5L31.5 63L32 58.5L32.5 56L33 53.5L33.5 52L34 50.5L35 48H80.5H127.5L128 49.5L129 53L130.5 57.5L132 64L133 70M30.5 69.5H22V75.5H30M30.5 69.5L30 75.5M30 75.5L29.5 80.5L29 85L28.5 89V92.5L31 94L34 95.5L39 97.5L45 99.5L53.5 101H80.5H93.5H107L111 100.5L115 99.5L118.5 98.5L123 97L127.5 95.5L131.5 94L134 92.5V87V80.5V76.5M134 76.5H141V69.5H133L134 76.5ZM71.5 22L73.5 19H90.5L92.5 22M100 118.5H84V115.5H100V118.5ZM100 118.5L99.5 120L98.5 121L96 121.5H93.5L91.5 120.5L90 118.5M90 115.5L91 113.5L93.5 112.5H95.5H96.5L98 113L100 115M81.5 92.5V87M81.5 92.5L77.5 95.5M81.5 92.5L85.5 95.5M37.5 143.5H71V149.5H37.5V143.5Z" stroke="#1A3C55" stroke-opacity="0.4"/>
<path d="M87.5 92C87.5 95.0006 84.8521 97.5 81.5 97.5C78.1479 97.5 75.5 95.0006 75.5 92C75.5 88.9994 78.1479 86.5 81.5 86.5C84.8521 86.5 87.5 88.9994 87.5 92Z" stroke="#1A3C55" stroke-opacity="0.4"/>
</svg>
