<svg width="630" height="477" viewBox="0 0 630 477" fill="none" xmlns="http://www.w3.org/2000/svg">
<path d="M17 12L149 1L406 45L410 46.5L415 49L420.5 52L424.5 54.5L428.5 57.5L433 61L439 67L444 73L454 84L552 227L616 286.5L621 292.5L623.5 299.5L624.5 302.5L626 306.5M17 12L244.5 69.5L255.5 72.5L265.57 79.76L273 89L277.5 97L284 109L290 122L295 133M17 12L11 17L6 26L1 36V51V132V141V154V168.5L1.5 183M16.5 221L47.5 245L45 232.5V225L47 218L47.5 214.5L49.5 211.5L54 211L59.5 211.5L66 218L80 245L85 256.5L90 269.5L92 271L316.5 410V396L317 383L317.5 377L318.5 374L321 370L324 367L327.5 365L332 364L337 363.5H344L347.5 364L351.5 365.5L356 367.5L360 370.5L365.5 375L372.5 382.5L377 387.5L380.5 391.5L385.5 398L408 400.5L428 410L437 414.5L444 417L454 419.5H465L479.5 418.5L503.5 416L523.5 413.5L545 408.5L561.5 402.5L570.5 398.5L579.5 394L586.5 389.5L593 385.5L598.5 382L604 378L609 374L613.5 368.5L617.5 362.5L621 356.5L623.5 351.5L627 344M372 279L398 278L416 276.5L439 271L464.5 264.5L490 257L521 245L538 237L549 227L476 122L458 126L428 132L411 136L392 139.5L371.5 142.5L353 146L332 149L311 151L372 279ZM372 279L392 299L416 322L434 339L446.5 354M446.5 354L451.5 355L455.5 356L463 358L470 360.5L476 362.5L481.5 365L486.5 368.5L491.5 374L494.5 378L497.5 382L503 389.5L505.5 394L508 398.5L509.5 404L488.5 406L479.5 407L472 407.5L465 408L460 407.5L455.5 407L451.5 405.5L445 401L440 395.5L428 376L422.5 365L419.5 358L418 354.5L417.5 350.5H425.5L434 351.5L440 352.5L446.5 354Z" stroke="#1a3c55" stroke-opacity="0.4"/>
<path d="M364.5 348.5L369.5 351.5L376 357L383.5 364.5" stroke="#1a3c55" stroke-opacity="0.4"/>
<path d="M410.5 457L409.5 460L407 462.5L404 465L401 467L397.5 469L392.5 471.5L389 473L385.5 474L378.5 475.5M325 366L314.5 357.5L293.5 345L77.5 226.5H70.5M317 382.5L83.5 246.5H81" stroke="#1a3c55" stroke-opacity="0.4"/>
<path d="M69.5 225L63.5 218.5L58 218L53.5 221L51 225L50 230.5L49.5 244.5L51.5 253.5L53.5 263L57.5 273L63.5 283L67.5 286L70.5 288L75.5 289.5M75.5 289.5L86 288L91.5 285.5L97 283.5L99 280L100 275.5M75.5 289.5L80 286L83.5 283L86 278.5L87.5 273L88 268V263M49.5 145L8 125.5V77.5V64.5L10 61.5H13.5L19.5 63L119.5 94L150 103L170 109L219.5 125L223.5 127.5L225.5 131.5V136L219.5 207.5L217 216L209.5 221.5H203.5L124.5 184.5M49.5 145V151.5L124.5 184.5M49.5 145L124.5 178V184.5M49.5 211.5L42.5 206.5L1.5 182.5L3.5 198L7 209L9.5 216L16.5 221L12 204.5L45 225L47 216L48 213.5L49.5 211.5ZM67.5 273L63 268L60 262L57.5 253.5L57 245L57.5 235L60.5 231.5L63 230.5L65.5 231L69.5 234.5L73 239.5L74.5 244.5L76 249.5L77 255L77.5 261.5L77 268L75.5 273L73 274.5H70.5L67.5 273Z" stroke="#1a3c55" stroke-opacity="0.4"/>
<path d="M569 380L577 369M569 380L567.5 376.5L567 373V368.5L567.5 364L568 360.5L569.5 356.5L572 354L575.5 353H579.5L581 354L582 355L583.5 356.5L584 357.5L585 359.5L585.5 364V368L585 372.5L584 376.5L582.5 379L580 381.5L577.5 382.5L575.5 383L572.5 382.5L570.5 381.5L569 380ZM67 244.5L70 251L71 256.5L70.5 261.5L69.5 263.5L67.5 264L66 262.5L63.5 258.5L62 254L61.5 249L62 245L64 243.5L67 244.5ZM357.5 413.5L353.5 411.5H350L348 412.5L346 415.5L345.5 418.5V422.5L346 426.5L347 430.5L348 433L349.5 435.5L353.5 439.5L357 441H360.5L363 439.5L364.5 437.5L365.5 434L366 432V429L365 424L362 418.5L357.5 413.5ZM509 371L508 373.5L509 376.5L510 379L517.5 391.5L524 400.5L527.5 402.5H531.5H536.5L542 401.5L550 399L558.5 395.5L569.5 390.5L578.5 386.5L587 381.5L596 376.5L603.5 371L609 366L614 359.5L615.5 356.5L616.5 353.5L617 351.5V347.5V345V342.5V340V337V333V329V326V323L590 336L572.5 344L558.5 350.5L538.5 359.5L509 371Z" stroke="#1a3c55" stroke-opacity="0.4"/>
<path d="M585 371.5L577 369L576.5 353" stroke="#1a3c55" stroke-opacity="0.4"/>
<path d="M248 70.5L243 94M243 94L237.5 122.5L233.5 157L230.5 190.5L228 231V287.5V324.5L230 342L232 357.5M243 94L217.5 86.5L135.5 65L14 36M407.5 400L403 391L399.5 385L392 375L387 368.5L383 364M365 349L359 346L353 343.5L349.5 342.5L345 342L338 342.5L332.5 343.5L329 344.5L326 346L321.5 348.5L317 352L313.5 356L311 360L308.5 365L306.5 371.5L305 378.5V387.5L306.5 403.5M77.5 225.5L73.5 216L68 208.5L61.5 202M48.5 200.5L44 206M263 103L273 113M464 275L483 291L432 304H424L404 291V286L432 281L464 275ZM556 237L570 253L556 261L544 268L532 253L544 246L556 237ZM8 152L158 231C198 252 292 312.5 296.5 315.5C299.894 317.763 116.667 217.333 35 174L8 162V152Z" stroke="#1a3c55" stroke-opacity="0.4"/>
<path d="M339 251.5L359.5 302L326.5 277.5L310 282.5H293L290 279.5L289.5 276.5L290.977 257L293 238.5L294 236.5L295 235L296.5 233.5L298 232.5L300 231.5L302.5 230.5H311.5H320L323 231.5L325 234L325.5 255.5L339 251.5ZM339 251.5L314.5 196.5L299.5 161.5L293 156L256 135L252.5 134L248.5 135L247 138V142.5V175L248 205L248.3 210L249 213.5L250 217L252 221L254.5 225L257.5 228.5L263 233.5L270.5 239.5L280 246L290.977 252.5M392.5 463.5L390.5 467L386.5 471.5L383.5 474L375 476.5H368.5L363 475L358 472.5L351 468L347 465L342.5 461.5L339 458L335 452.5L332 447.5L329 440L326.5 432.5L325 426L323.5 418V412V404.5L324 398L325 394L326.5 390L328 386.5L329.5 383.5L332.5 380L336 378L339 377L343 376.5H347L352.5 377.5L356.5 379L360.5 381L364.5 384L368.5 387.5L373 391.5M372.562 391.062L377.5 396L381.5 401L386.5 409.5L388.5 413.25L390 417L392 422.5L394 428L395 432.5L396 437.5L396.5 441.5M620.5 292V296V301V308.5V317V329V340V346.5L627 334.5M627 334.5L628 330.5V325.5V320.5V318L627.6 314L627 310L626 306.5M627 334.5V343.5L628 347.5L629 354V364.5L626.5 374.5L621.5 388.5L617.5 397L614.5 402L610.5 406.5L607 411L598.5 419M385.5 398L395 415L400.5 428.5L405.5 440L410.5 457L424 463.5L438.5 468L453 470H461.5H469.5L478.5 469L488.5 467L515 460L530 455L546.5 448M598.5 419V410L581.5 419L564 428L546.5 436.5V453.5L598.5 426.5V419ZM359.5 397L353 394.5H347L342.5 396L339.5 397.5L336.5 400.5L335 405L334.5 408V412.5L335 420L335.5 424.5L337 431.5L339 436L342.5 442.5L347.5 449L351 452.5L355 455.5L358.5 457.5L360.5 458.5L363 459H365H367.5H369.5L372 458L375.5 456L378.5 452L380 447.5L381 443V438.5L380 432.5L378.5 427L376 420L373 412L370 407.5L367.5 404.5L364 400.5L359.5 397Z" stroke="#1a3c55" stroke-opacity="0.4"/>
<path d="M396.5 441L397 444V447L396.5 452L396 454.5L395 458L393.5 462L392 464.5" stroke="#1a3c55" stroke-opacity="0.4"/>
</svg>
